# Blender v2.90.1 OBJ File: 'axe.blend'
# www.blender.org
mtllib axe.mtl
o Cube
v -0.025241 0.866149 0.059684
v -0.059684 -0.218633 0.030714
v -0.059684 -0.218633 -0.030714
v -0.030714 -0.218633 -0.059684
v 0.059684 -0.218633 0.030714
v 0.025241 0.866149 0.059684
v 0.030714 -0.218633 -0.059684
v 0.059684 -0.218633 -0.030714
v -0.030714 1.358542 -0.059684
v -0.059684 1.358542 -0.030714
v 0.059684 1.358542 -0.030714
v 0.030714 1.358542 -0.059684
v -0.059684 1.358542 0.030714
v -0.025241 1.233922 0.059684
v 0.025241 1.233922 0.059684
v 0.059684 1.358542 0.030714
v -0.080820 -0.391471 0.080820
v -0.076711 -0.444416 0.076711
v -0.076711 -0.444416 -0.076711
v -0.080820 -0.391471 -0.080820
v 0.080820 -0.391471 0.080820
v 0.076711 -0.444416 0.076711
v 0.076711 -0.444416 -0.076711
v 0.080820 -0.391471 -0.080820
v 0.030714 1.358542 0.059684
v 0.030714 -0.218633 0.059684
v -0.030714 -0.218633 0.059684
v -0.030714 1.358542 0.059684
v 0.025241 1.233922 0.143184
v 0.025241 0.866149 0.143184
v -0.025241 0.866149 0.143184
v -0.025241 1.233922 0.143184
v 0.000000 1.440082 0.350207
v 0.000000 0.403803 0.383049
v -0.059684 0.569955 -0.030714
v -0.030714 0.569955 -0.059684
v 0.059684 0.569955 -0.030714
v 0.030714 0.569955 -0.059684
v 0.030714 0.569955 0.059684
v 0.059684 0.569955 0.030714
v -0.030714 0.569955 0.059684
v -0.059684 0.569955 0.030714
v 0.025241 0.935373 0.059684
v -0.025241 0.935373 0.059684
v 0.025241 0.935373 0.143184
v -0.025241 0.935373 0.143184
v 0.082967 0.929540 0.226765
v -0.082967 0.929540 0.226765
v 0.000000 0.929540 0.542168
v -0.059684 0.964249 -0.030714
v 0.030714 0.964249 -0.059684
v 0.059684 0.964249 0.030714
v -0.030714 0.964249 0.059684
v -0.025241 1.141979 0.059684
v -0.025241 1.141979 0.143184
v -0.082967 1.172732 0.226765
v -0.030714 0.964249 -0.059684
v 0.059684 0.964249 -0.030714
v 0.030714 0.964249 0.059684
v -0.059684 0.964249 0.030714
v 0.025241 1.141979 0.059684
v 0.025241 1.141979 0.143184
v 0.082967 1.172732 0.226765
v 0.000000 1.172838 0.537301
v 0.012620 1.281470 0.257055
v -0.012620 1.281470 0.257055
v -0.012620 0.728109 0.265074
v 0.012620 0.728109 0.265074
vt 0.446167 0.000000
vt 0.525134 0.028050
vt 0.479862 0.160420
vt 0.400895 0.132371
vt 0.092694 0.818754
vt 0.092694 0.806506
vt 0.101761 0.789905
vt 0.101761 0.842429
vt 0.615025 0.000148
vt 0.627042 0.000000
vt 0.628689 0.140863
vt 0.616671 0.141011
vt 0.101754 0.789905
vt 0.020962 0.767906
vt 0.056666 0.631721
vt 0.137459 0.653719
vt 0.691576 0.815507
vt 0.682529 0.815396
vt 0.684175 0.674533
vt 0.693223 0.674644
vt 0.525134 0.324151
vt 0.393407 0.348467
vt 0.125568 0.451451
vt 0.589668 0.141343
vt 0.590066 0.278776
vt 0.580620 0.141455
vt 0.308229 0.532782
vt 0.725406 0.537603
vt 0.693621 0.537212
vt 0.700540 0.000000
vt 0.732243 0.008601
vt 0.621851 0.278384
vt 0.718580 0.815840
vt 0.720226 0.674977
vt 0.578974 0.000592
vt 0.588022 0.000480
vt 0.009067 0.806506
vt 0.009067 0.818754
vt 0.000000 0.842429
vt 0.000000 0.789905
vt 0.730597 0.815988
vt 0.732243 0.675125
vt 0.628689 0.807387
vt 0.596985 0.815988
vt 0.092694 0.846276
vt 0.101761 0.894953
vt 0.525134 0.548405
vt 0.353924 0.334442
vt 0.628689 0.267582
vt 0.265567 0.000000
vt 0.265567 0.542627
vt 0.185643 0.304851
vt 0.165964 0.462450
vt 0.000000 0.470315
vt 0.265567 0.231951
vt 0.415318 0.585306
vt 0.313557 0.585306
vt 0.313557 0.532782
vt 0.415318 0.532782
vt 0.781964 0.703337
vt 0.883656 0.703355
vt 0.883656 0.755878
vt 0.781964 0.755860
vt 0.732243 0.913666
vt 0.833935 0.913648
vt 0.833935 0.966172
vt 0.732243 0.966189
vt 0.265567 0.585306
vt 0.265567 0.532782
vt 0.463308 0.637829
vt 0.463308 0.742877
vt 0.415318 0.742877
vt 0.415318 0.637829
vt 0.732243 0.651033
vt 0.732243 0.545987
vt 0.781964 0.545768
vt 0.781964 0.650814
vt 0.883656 0.913868
vt 0.883656 0.966391
vt 0.463300 0.895489
vt 0.415312 0.944397
vt 0.313555 0.944397
vt 0.265567 0.895489
vt 0.265567 0.791784
vt 0.313555 0.742877
vt 0.415312 0.742877
vt 0.463300 0.791784
vt 0.009067 0.846276
vt 0.009067 0.855497
vt 0.000000 1.000000
vt 0.000000 0.894953
vt 0.092694 0.855497
vt 0.101761 1.000000
vt 0.883656 0.756298
vt 0.883656 0.861345
vt 0.833935 0.861125
vt 0.833935 0.756079
vt 0.732243 0.703556
vt 0.463308 0.585306
vt 0.265567 0.742877
vt 0.265567 0.637829
vt 0.313557 0.637829
vt 0.313557 0.742877
vt 0.732243 0.756097
vt 0.732243 0.861143
vt 0.883656 0.545785
vt 0.883656 0.650832
vt 0.463308 0.532782
vt 0.732243 0.756079
vt 0.815051 0.035682
vt 0.767062 0.084589
vt 0.732243 0.000000
vt 0.732243 0.272884
vt 0.815051 0.237202
vt 0.916808 0.237202
vt 1.000000 0.272884
vt 0.767062 0.188295
vt 0.964796 0.188295
vt 0.964796 0.084589
vt 1.000000 0.000000
vt 0.916808 0.035682
vt 0.992476 0.279820
vt 0.992476 0.538831
vt 0.739742 0.538831
vt 0.739742 0.279820
vt 0.470228 0.798806
vt 0.470228 0.539970
vt 0.477117 0.532782
vt 0.477117 0.805481
vt 0.470228 0.539718
vt 0.470228 0.798729
vt 0.463308 0.805666
vt 0.463308 0.532782
vt 0.732243 0.545768
vt 0.732243 0.272884
vt 0.484006 0.539970
vt 0.484006 0.798806
vt 0.477117 0.805481
vt 0.477117 0.532782
vn 0.0000 -1.0000 0.0000
vn -0.0000 0.0000 1.0000
vn 1.0000 0.0000 0.0000
vn 0.0000 1.0000 0.0000
vn -1.0000 0.0000 0.0000
vn 0.8721 -0.3663 -0.3245
vn 0.0000 0.9228 -0.3853
vn 0.8228 0.0000 -0.5683
vn 0.4627 -0.3189 -0.8272
vn -0.9666 0.0026 0.2562
vn -0.8228 0.0000 -0.5683
vn 0.9666 0.0026 0.2562
vn 0.9642 -0.0768 0.2536
vn 0.0000 -0.3419 -0.9398
vn -0.9642 -0.0768 0.2536
vn 0.9507 0.1778 0.2540
vn 0.8115 0.5657 -0.1463
vn -0.9507 0.1778 0.2540
vn -0.8115 0.5657 -0.1463
vn 0.0000 -0.6619 -0.7496
vn -0.8721 -0.3663 -0.3245
vn -0.4627 -0.3189 -0.8272
vn -0.4181 0.4845 -0.7684
vn 0.4181 0.4845 -0.7684
vn 0.0000 0.5064 -0.8623
vn 0.0000 0.0000 -1.0000
vn -0.7071 0.0000 -0.7071
vn 0.7071 0.0000 -0.7071
vn 0.7071 0.0000 0.7071
vn -0.7071 0.0000 0.7071
vn 0.6789 0.2798 0.6789
vn -0.9926 0.1214 0.0000
vn -0.6789 0.2798 0.6789
vn -0.6789 0.2798 -0.6789
vn 0.0000 0.1214 -0.9926
vn 0.9926 0.1214 0.0000
vn 0.6789 0.2798 -0.6789
vn 0.9970 -0.0774 0.0000
vn 0.0000 -0.0774 0.9970
vn 0.0000 -0.0774 -0.9970
vn -0.9970 -0.0774 0.0000
vn 0.0000 0.1214 0.9926
usemtl steel
s off
f 1/1/1 6/2/1 30/3/1 31/4/1
f 54/5/2 14/6/2 28/7/2 53/8/2
f 61/9/3 15/10/3 29/11/3 62/12/3
f 15/13/4 14/14/4 32/15/4 29/16/4
f 44/17/5 1/18/5 31/19/5 46/20/5
f 47/21/6 68/22/6 30/3/6
f 32/15/7 66/23/7 29/16/7
f 45/24/8 47/25/8 30/26/8
f 34/27/9 68/22/9 47/21/9
f 56/28/10 48/29/10 49/30/10 64/31/10
f 46/20/11 31/19/11 48/29/11
f 63/32/8 47/25/8 45/24/8 62/12/8
f 54/33/5 44/17/5 46/20/5 55/34/5
f 6/35/3 43/36/3 45/24/3 30/26/3
f 15/37/2 61/38/2 59/39/2 25/40/2
f 14/41/5 54/33/5 55/34/5 32/42/5
f 47/25/12 63/32/12 64/43/12 49/44/12
f 48/29/11 56/28/11 55/34/11 46/20/11
f 43/36/3 61/9/3 62/12/3 45/24/3
f 44/45/2 54/5/2 53/8/2 41/46/2
f 49/44/13 34/47/13 47/25/13
f 67/48/14 68/22/14 34/27/14
f 49/30/15 48/29/15 34/49/15
f 64/50/16 63/51/16 33/52/16
f 63/51/17 29/16/17 65/53/17
f 62/12/8 29/11/8 63/32/8
f 64/50/18 33/52/18 56/54/18
f 56/54/19 66/23/19 32/15/19
f 55/34/11 56/28/11 32/42/11
f 31/4/20 30/3/20 68/22/20 67/48/20
f 31/4/21 67/48/21 48/55/21
f 48/55/22 67/48/22 34/27/22
f 33/52/23 66/23/23 56/54/23
f 65/53/24 33/52/24 63/51/24
f 65/53/7 29/16/7 66/23/7
f 33/52/25 65/53/25 66/23/25
usemtl wood
f 51/56/26 57/57/26 9/58/26 12/59/26
f 52/60/3 58/61/3 11/62/3 16/63/3
f 50/64/5 60/65/5 13/66/5 10/67/5
f 50/68/27 10/69/27 9/58/27 57/57/27
f 37/70/28 8/71/28 7/72/28 38/73/28
f 39/74/29 26/75/29 5/76/29 40/77/29
f 53/78/30 28/79/30 13/66/30 60/65/30
f 9/80/4 10/81/4 13/82/4 28/83/4 25/84/4 16/85/4 11/86/4 12/87/4
f 43/88/2 6/89/2 26/90/2 39/91/2
f 6/89/2 1/92/2 27/93/2 26/90/2
f 14/6/2 15/37/2 25/40/2 28/7/2
f 1/92/2 44/45/2 41/46/2 27/93/2
f 61/38/2 43/88/2 39/91/2 59/39/2
f 27/94/30 41/95/30 42/96/30 2/97/30
f 59/98/29 39/74/29 40/77/29 52/60/29
f 58/99/28 37/70/28 38/73/28 51/56/28
f 3/100/27 35/101/27 36/102/27 4/103/27
f 3/104/5 2/97/5 42/96/5 35/105/5
f 5/76/3 8/106/3 37/107/3 40/77/3
f 7/72/26 4/103/26 36/102/26 38/73/26
f 11/108/28 58/99/28 51/56/28 12/59/28
f 25/109/29 59/98/29 52/60/29 16/63/29
f 41/95/30 53/78/30 60/65/30 42/96/30
f 35/101/27 50/68/27 57/57/27 36/102/27
f 35/105/5 42/96/5 60/65/5 50/64/5
f 40/77/3 37/107/3 58/61/3 52/60/3
f 38/73/26 36/102/26 57/57/26 51/56/26
usemtl brass
f 5/110/31 26/111/31 21/112/31
f 17/113/32 2/114/32 3/115/32 20/116/32
f 27/117/33 2/114/33 17/113/33
f 3/115/34 4/118/34 20/116/34
f 20/116/35 4/118/35 7/119/35 24/120/35
f 24/120/36 8/121/36 5/110/36 21/112/36
f 7/119/37 8/121/37 24/120/37
f 22/122/1 18/123/1 19/124/1 23/125/1
f 22/126/38 23/127/38 24/128/38 21/129/38
f 18/130/39 22/131/39 21/132/39 17/133/39
f 23/125/40 19/124/40 20/134/40 24/135/40
f 19/136/41 18/137/41 17/138/41 20/139/41
f 21/112/42 26/111/42 27/117/42 17/113/42
