# Blender v2.90.1 OBJ File: 'Halberd.blend'
# www.blender.org
mtllib Halberd.mtl
o Cube.001
v 0.115450 -2.265622 0.115451
v 0.038534 -2.036621 0.072499
v -0.038536 -2.036621 0.072499
v -0.115452 -2.265622 0.115451
v 0.074771 -2.036621 0.036262
v 0.074771 -2.036621 -0.040808
v 0.031173 2.245415 -0.023907
v 0.031173 2.245415 0.023907
v 0.019125 2.246383 0.035892
v -0.019126 2.246383 0.035892
v -0.074773 -2.036621 -0.040808
v -0.074773 -2.036621 0.036262
v -0.031173 2.245415 0.023907
v -0.031173 2.245415 -0.023907
v -0.115452 -2.265622 -0.115451
v -0.038536 -2.036621 -0.077045
v 0.038534 -2.036621 -0.077045
v 0.115450 -2.265622 -0.115451
v -0.019126 2.246383 -0.035892
v 0.019125 2.246383 -0.035892
v -0.000000 2.402468 -0.104695
v -0.000000 2.402468 0.104695
v -0.071767 2.586442 0.000000
v 0.047772 1.963725 0.027602
v 0.071766 2.586442 -0.000000
v -0.000000 3.556194 0.000000
v 0.047772 1.963725 -0.027015
v 0.072168 0.467950 0.035182
v 0.072168 0.467950 -0.039728
v -0.037455 0.467950 0.069896
v 0.037454 0.467950 0.069896
v -0.072170 0.467950 -0.039728
v -0.072170 0.467950 0.035182
v 0.037454 0.467950 -0.074442
v -0.037455 0.467950 -0.074442
v 0.069873 1.568676 0.034374
v 0.069924 1.568670 -0.038799
v -0.069924 1.568670 -0.038799
v -0.069874 1.568676 0.034374
v 0.036526 1.568672 -0.072197
v -0.036527 1.568672 -0.072197
v 0.047787 2.109936 0.027301
v 0.047787 2.109936 -0.027301
v -0.047787 2.109936 -0.027301
v -0.047787 2.109936 0.027301
v 0.027391 2.109957 -0.047747
v -0.027391 2.109957 -0.047747
v 0.036421 1.568671 0.067694
v -0.036422 1.568671 0.067694
v -0.027391 2.110799 0.048262
v 0.027391 2.110799 0.048262
v -0.041233 1.964162 0.048293
v 0.041232 1.964162 0.048293
v -0.047773 1.963725 -0.027015
v -0.047773 1.963725 0.027602
v 0.027376 1.963740 -0.047449
v -0.027377 1.963740 -0.047449
v 0.046395 -2.431236 0.046396
v 0.104935 -2.357278 0.104936
v -0.046397 -2.431236 0.046396
v -0.104937 -2.357278 0.104936
v -0.104937 -2.357278 -0.104936
v -0.046397 -2.431236 -0.046396
v 0.104935 -2.357278 -0.104936
v 0.046395 -2.431236 -0.046396
v -0.038016 1.726939 0.048116
v 0.038017 1.726939 0.048116
v 0.018246 1.694422 0.205355
v -0.018246 1.694422 0.205355
v -0.041244 2.037480 0.048277
v 0.041243 2.037480 0.048277
v 0.015011 2.038817 0.149002
v 0.047869 1.951555 0.265980
v -0.015011 2.038817 0.149002
v -0.047750 1.726800 -0.027174
v -0.043076 1.839354 0.256699
v 0.082967 1.648340 0.697646
v -0.000000 1.627826 0.276600
v -0.000000 2.103917 0.240453
v 0.043076 1.839354 0.256699
v 0.000000 0.392093 0.258837
v -0.082967 1.982995 0.701723
v -0.082967 1.648340 0.697646
v -0.000000 1.828334 0.916851
v -0.000000 2.017777 0.870473
v 0.082967 1.982995 0.701723
v -0.047869 1.951555 0.265980
v -0.047750 1.726800 0.027467
v -0.000000 2.737508 0.313416
v -0.047780 2.036830 -0.027158
v 0.047779 2.036830 0.027451
v 0.047779 2.036830 -0.027158
v 0.027383 2.036849 -0.047598
v -0.047780 2.036830 0.027451
v -0.027384 2.036849 -0.047598
v 0.039480 2.177675 0.025604
v 0.039480 2.177675 -0.025604
v -0.023259 2.178591 0.042077
v 0.023258 2.178591 0.042077
v -0.039480 2.177675 -0.025604
v -0.039480 2.177675 0.025604
v 0.023258 2.178170 -0.041819
v -0.023259 2.178170 -0.041819
v 0.043633 2.143806 0.026452
v 0.043633 2.143806 -0.026452
v -0.025325 2.144695 0.045169
v 0.025324 2.144695 0.045169
v -0.043634 2.143806 -0.026452
v -0.043634 2.143806 0.026452
v 0.025324 2.144063 -0.044783
v -0.025325 2.144063 -0.044783
v 0.000000 1.536967 0.837128
v -0.000000 2.478194 0.437631
v 0.050804 2.227792 0.500865
v -0.050804 2.227792 0.500865
v 0.000000 2.227936 0.312953
v 0.034197 0.873517 0.344272
v -0.000000 0.866760 0.220354
v -0.034196 0.873517 0.344272
v -0.000000 0.879104 0.438915
v -0.027354 1.726808 -0.047588
v 0.027354 1.726808 -0.047588
v 0.047749 1.726800 -0.027174
v 0.047749 1.726800 0.027467
vt 0.224479 0.192692
vt 0.190283 0.218760
vt 0.184621 0.218922
vt 0.173883 0.161964
vt 0.115450 0.192692
vt 0.079960 0.218760
vt 0.073484 0.218922
vt 0.060010 0.161964
vt 0.118442 0.192692
vt 0.171451 0.000000
vt 0.062448 0.000000
vt 0.009413 0.192692
vt 0.049270 0.218922
vt 0.043608 0.218760
vt 0.160407 0.218922
vt 0.153931 0.218760
vt 0.318162 0.781047
vt 0.337574 0.781013
vt 0.329100 0.807242
vt 0.465426 0.026448
vt 0.446014 0.026403
vt 0.457340 0.000000
vt 0.985010 0.037785
vt 0.946421 0.037785
vt 0.956455 0.030100
vt 0.974976 0.030100
vt 0.987736 0.018268
vt 0.945871 0.018268
vt 0.959185 0.011140
vt 0.974422 0.011140
vt 0.682158 0.155837
vt 0.849137 0.151437
vt 0.881649 0.162324
vt 0.952905 0.048483
vt 0.960523 0.039390
vt 0.968142 0.048483
vt 0.855453 0.186508
vt 0.864320 0.024009
vt 0.816936 0.025769
vt 0.430265 0.111187
vt 0.438677 0.165694
vt 0.346603 0.135726
vt 0.357847 0.104794
vt 0.613063 0.135068
vt 0.639243 0.159251
vt 0.672614 0.210390
vt 0.850032 0.205186
vt 0.600166 0.216785
vt 0.589179 0.185844
vt 0.607691 0.116391
vt 0.625821 0.137246
vt 0.378811 0.184130
vt 0.749248 0.250587
vt 0.773185 0.292344
vt 0.904760 0.219996
vt 0.859990 0.230573
vt 0.662423 0.101582
vt 0.595361 -0.013532
vt 0.506912 0.070991
vt 0.530845 0.029234
vt 0.617654 0.091005
vt 0.955546 0.022058
vt 0.973841 0.021502
vt 0.971429 0.030027
vt 0.607056 0.170068
vt 0.561934 0.280856
vt 0.627195 0.306307
vt 0.628386 0.399739
vt 0.584065 0.070612
vt 0.826402 0.250966
vt 0.837699 0.335110
vt 0.854165 -0.054733
vt 0.710332 0.102225
vt 0.952669 0.219354
vt 0.952270 0.207231
vt 0.709933 0.114347
vt 0.952718 0.167677
vt 0.710381 0.153901
vt 0.778945 0.027047
vt 0.518651 0.271850
vt 0.325481 0.482738
vt 0.312297 0.064647
vt 0.327725 0.064499
vt 0.334809 0.482661
vt 0.292874 0.482734
vt 0.260637 0.064616
vt 0.276076 0.064710
vt 0.302207 0.482778
vt 0.076894 0.935418
vt 0.073030 0.517121
vt 0.083010 0.517121
vt 0.094692 0.935440
vt 0.294917 0.666548
vt 0.307949 0.666592
vt 0.337023 0.666541
vt 0.350049 0.666451
vt 0.139172 0.935440
vt 0.150870 0.517121
vt 0.160849 0.517121
vt 0.156970 0.935418
vt 0.431443 0.741501
vt 0.392330 0.741412
vt 0.418454 0.324206
vt 0.456471 0.324293
vt 0.039372 0.935409
vt 0.042929 0.517121
vt 0.194492 0.935410
vt 0.190951 0.517121
vt 0.075221 0.333289
vt 0.089168 0.333289
vt 0.144719 0.333289
vt 0.158665 0.333289
vt 0.430179 0.140626
vt 0.467254 0.140711
vt 0.042259 0.333288
vt 0.191628 0.333288
vt 0.116931 0.972339
vt 0.000000 0.972339
vt 0.185761 0.230235
vt 0.159829 0.230235
vt 0.339923 0.764049
vt 0.339140 0.769703
vt 0.315533 0.769745
vt 0.351048 0.777978
vt 0.468231 0.778245
vt 0.074061 0.230235
vt 0.048129 0.230235
vt 0.233862 0.972339
vt 0.116931 0.972339
vt 0.466829 0.037789
vt 0.443221 0.037735
vt 0.233862 0.027948
vt 0.351048 0.027743
vt 0.151070 0.230153
vt 0.082821 0.230153
vt 0.304917 0.763920
vt 0.302543 0.758271
vt 0.312904 0.758443
vt 0.314218 0.764094
vt 0.340706 0.758394
vt 0.351048 0.758186
vt 0.349206 0.763843
vt 0.344991 0.012425
vt 0.238478 0.012612
vt 0.267601 0.000082
vt 0.314694 0.000000
vt 0.005679 0.987647
vt 0.111960 0.987647
vt 0.084291 1.000000
vt 0.037301 1.000000
vt 0.355444 0.793331
vt 0.461954 0.793574
vt 0.431468 0.806181
vt 0.384376 0.806073
vt 0.196560 1.000000
vt 0.149570 1.000000
vt 0.121902 0.987647
vt 0.228182 0.987647
vt 1.000000 0.000000
vt 1.000000 0.009082
vt 0.952905 0.009082
vt 0.952905 0.000000
vt 0.074570 0.305539
vt 0.085598 0.305538
vt 0.148290 0.305538
vt 0.159317 0.305539
vt 0.349893 0.733774
vt 0.350471 0.745980
vt 0.343575 0.746131
vt 0.343046 0.733890
vt 0.159396 0.265968
vt 0.159324 0.253758
vt 0.186978 0.253758
vt 0.187055 0.265968
vt 0.148360 0.265966
vt 0.148284 0.253756
vt 0.046988 0.241549
vt 0.074639 0.241549
vt 0.074566 0.253758
vt 0.046911 0.253758
vt 0.159251 0.241549
vt 0.186902 0.241549
vt 0.085682 0.241545
vt 0.085606 0.253756
vt 0.440429 0.049066
vt 0.468231 0.049130
vt 0.467480 0.061318
vt 0.439686 0.061254
vt 0.148208 0.241545
vt 0.347364 0.769500
vt 0.343680 0.780814
vt 0.312039 0.780869
vt 0.307291 0.769570
vt 0.074350 0.235892
vt 0.084251 0.235849
vt 0.149639 0.235849
vt 0.159540 0.235892
vt 0.467530 0.043459
vt 0.441825 0.043401
vt 0.047559 0.235892
vt 0.186332 0.235892
vt 0.438942 0.073443
vt 0.466729 0.073506
vt 0.074493 0.265968
vt 0.085530 0.265966
vt 0.046834 0.265968
vt 0.308260 0.733950
vt 0.308882 0.746191
vt 0.301973 0.746065
vt 0.301403 0.733859
vt 0.186988 0.305539
vt 0.046900 0.305539
vt 0.464297 0.113002
vt 0.436532 0.112939
vt 0.307539 0.694342
vt 0.299554 0.694300
vt 0.340043 0.694286
vt 0.348022 0.694215
vn -0.6450 -0.4118 0.6437
vn 0.6075 -0.2621 0.7498
vn 0.9689 -0.1068 0.2232
vn 0.9946 -0.1038 0.0000
vn 0.6450 -0.4118 -0.6437
vn -0.6075 -0.2621 -0.7498
vn -0.9689 -0.1068 -0.2232
vn -0.9946 -0.1038 0.0000
vn 0.9973 0.0738 -0.0000
vn 0.8140 0.0469 -0.5790
vn 0.0546 0.0627 0.9965
vn 0.6468 0.0268 0.7622
vn -0.8140 0.0469 -0.5790
vn -0.9973 0.0738 0.0000
vn -0.9689 -0.1068 0.2232
vn -0.6075 -0.2621 0.7498
vn 0.9689 -0.1068 -0.2232
vn 0.6075 -0.2621 -0.7498
vn 0.0000 -0.9793 -0.2025
vn -0.0596 0.9282 0.3672
vn 0.0596 0.9282 0.3672
vn 0.0207 0.9283 0.3713
vn -0.0208 0.9283 0.3713
vn 0.9169 -0.3709 -0.1472
vn 0.8987 -0.3908 -0.1988
vn 0.9112 -0.3723 -0.1766
vn 0.0000 0.8147 -0.5799
vn 0.5909 0.4775 -0.6502
vn 0.2155 0.4240 -0.8797
vn 0.9922 -0.0574 -0.1108
vn 0.9947 -0.0316 -0.0982
vn 0.9830 -0.1187 -0.1403
vn 0.9864 -0.0012 -0.1644
vn 0.9887 -0.0415 -0.1440
vn 0.9896 -0.0331 -0.1399
vn 0.9892 -0.0235 -0.1444
vn -0.9250 0.0306 0.3787
vn -0.9922 -0.0574 -0.1108
vn -0.9830 -0.1187 -0.1403
vn -0.9947 -0.0316 -0.0982
vn 0.9979 -0.0148 -0.0632
vn 0.9923 0.1231 -0.0129
vn 0.9250 0.0306 0.3787
vn -0.9960 0.0180 -0.0878
vn -0.9909 0.1336 -0.0158
vn 0.8922 -0.1192 0.4356
vn 0.9036 -0.1771 0.3901
vn 0.8998 -0.1269 0.4174
vn -0.8922 -0.1192 0.4356
vn -0.9025 -0.1699 0.3959
vn -0.9036 -0.1771 0.3901
vn 0.8987 0.2333 0.3714
vn 0.9283 0.2716 0.2540
vn 0.7474 0.3086 0.5883
vn 0.9014 0.3115 0.3009
vn 0.9639 0.2545 -0.0788
vn -0.8163 0.5452 0.1905
vn -0.6746 0.3183 0.6660
vn -0.9283 0.2716 0.2540
vn -0.7474 0.3086 0.5883
vn -0.9639 0.2545 -0.0788
vn -0.9470 0.2851 -0.1479
vn -0.9589 0.2599 -0.1142
vn 0.5055 0.7198 0.4759
vn 0.0000 -0.7305 -0.6829
vn -0.9112 -0.3723 -0.1766
vn -0.8987 -0.3908 -0.1988
vn -0.9169 -0.3709 -0.1472
vn -0.9892 -0.0235 -0.1444
vn -0.9864 -0.0012 -0.1644
vn -0.9791 -0.0309 -0.2012
vn -0.9874 -0.0050 -0.1581
vn -0.9929 0.0577 -0.1042
vn -0.9870 0.0903 -0.1327
vn -0.9873 0.0601 -0.1474
vn 0.9874 -0.0050 -0.1581
vn 0.9763 0.0141 -0.2160
vn 0.9873 0.0601 -0.1474
vn 0.9929 0.0577 -0.1042
vn 0.9870 0.0903 -0.1327
vn -0.9763 0.0141 -0.2160
vn -0.9896 -0.0331 -0.1399
vn -0.9887 -0.0415 -0.1440
vn 0.9791 -0.0309 -0.2012
vn 0.2767 -0.1026 0.9555
vn 0.1556 0.5184 0.8408
vn -0.0054 0.9256 0.3785
vn 0.0283 0.9996 -0.0047
vn 0.9770 -0.1965 0.0822
vn 0.6896 0.0222 0.7238
vn 0.9975 -0.0711 0.0025
vn -0.9770 -0.1965 0.0822
vn -0.9975 -0.0711 0.0025
vn -0.7113 0.0046 0.7029
vn 0.9173 -0.1856 0.3522
vn 0.9538 -0.1374 0.2673
vn 0.9304 -0.1271 0.3437
vn -0.9538 -0.1374 0.2673
vn -0.9173 -0.1856 0.3521
vn -0.9304 -0.1271 0.3437
vn -0.8987 0.2333 0.3714
vn -0.9014 0.3115 0.3009
vn 0.6746 0.3183 0.6660
vn 0.7068 0.0015 0.7074
vn 0.7071 0.0010 0.7071
vn -0.7068 0.0015 0.7074
vn -0.7071 0.0010 0.7071
vn -0.7071 0.0010 -0.7071
vn -0.7071 0.0015 -0.7071
vn -0.8667 -0.3734 0.3309
vn -0.2722 -0.7330 0.6234
vn 0.3631 -0.4205 0.8315
vn 0.8666 -0.3734 0.3309
vn 0.7071 0.0010 -0.7071
vn 0.7071 0.0015 -0.7071
vn 0.0000 0.0010 -1.0000
vn 0.0000 0.0015 -1.0000
vn -1.0000 0.0010 0.0000
vn -1.0000 0.0016 0.0002
vn 0.0000 0.0010 1.0000
vn 0.0000 0.0015 1.0000
vn 1.0000 0.0010 -0.0000
vn 1.0000 0.0016 0.0002
vn -0.9209 0.0728 -0.3829
vn -0.3810 0.0767 -0.9214
vn 0.3810 0.0767 -0.9214
vn 0.9209 0.0728 -0.3829
vn -0.9846 0.1749 0.0000
vn -0.7078 0.0250 -0.7059
vn -0.7058 0.0306 0.7077
vn 0.9926 0.1217 0.0000
vn 0.9958 0.0914 0.0002
vn 0.0000 0.0909 0.9959
vn 0.9471 -0.2187 -0.2349
vn -0.0000 0.1654 -0.9862
vn 0.7078 0.0250 -0.7059
vn -0.9926 0.1217 -0.0000
vn -0.9873 0.1591 -0.0023
vn 0.9846 0.1749 0.0000
vn 0.7058 0.0306 0.7077
vn 0.0000 0.0866 -0.9962
vn 0.0017 0.1074 -0.9942
vn -0.6661 0.3355 -0.6661
vn 0.6661 0.3355 -0.6661
vn -0.6631 0.3471 0.6631
vn 0.6631 0.3471 0.6631
vn 0.7062 0.0830 -0.7031
vn 0.7051 0.1039 -0.7015
vn 0.7048 0.1038 -0.7017
vn -0.7001 0.1341 -0.7013
vn -0.7051 0.1039 -0.7014
vn -0.7048 0.1038 -0.7017
vn 0.0000 0.1844 0.9829
vn -0.7134 0.1058 0.6928
vn -0.8215 0.4923 0.2878
vn -0.0196 0.6584 -0.7524
vn -0.4791 0.0893 -0.8732
vn 0.7133 0.1058 0.6928
vn -0.6484 0.3878 -0.6551
vn 0.8215 0.4923 0.2878
vn 0.7165 0.0681 0.6942
vn 0.4711 -0.7458 0.4711
vn -0.4711 -0.7458 0.4711
vn -0.4711 -0.7458 -0.4711
vn 0.4711 -0.7458 -0.4711
vn 0.0000 -1.0000 -0.0000
vn -0.7901 0.0856 -0.6070
vn -0.3760 -0.1782 -0.9093
vn 0.6091 0.0901 -0.7879
vn 0.9076 -0.1829 -0.3778
vn 0.9401 -0.1092 -0.3229
vn 0.9150 0.0261 0.4026
vn 0.7951 0.5091 -0.3296
vn 0.9619 -0.0009 -0.2736
vn 0.3295 0.5090 -0.7952
vn 0.4358 0.0915 -0.8954
vn -0.9198 0.0946 -0.3808
vn -0.9620 -0.0009 -0.2730
vn -0.9593 0.1880 0.2105
vn 0.9198 0.0945 -0.3808
vn -0.3832 0.0739 -0.9207
vn -0.4830 -0.0021 -0.8756
vn 0.3832 0.0739 -0.9207
vn 0.7090 0.1056 0.6973
vn 0.7107 0.1057 0.6955
vn 0.7140 0.0681 0.6968
vn -0.7090 0.1056 0.6973
vn -0.7108 0.1057 0.6954
vn -0.4821 0.0896 -0.8715
vn -0.6998 0.1341 -0.7017
vn -0.7044 0.1038 -0.7021
vn 0.7058 0.0830 -0.7035
vn 0.7044 0.1038 -0.7021
vn -0.9873 0.1590 -0.0023
vn -0.3296 0.5088 -0.7953
vn -0.7951 0.5091 -0.3296
vn -0.9457 -0.0567 -0.3202
vn 0.7119 0.1633 0.6830
vn -0.9875 0.0635 -0.1444
vn 0.6980 -0.1602 -0.6980
vn -0.6980 -0.1602 -0.6980
vn 0.6980 -0.1602 0.6980
vn -0.6980 -0.1602 0.6980
vn -0.0338 0.1011 0.9943
usemtl steel
s 1
f 22/1/1 9/2/2 8/3/3 25/4/4
f 21/5/5 19/6/6 14/7/7 23/8/8
f 25/4/9 21/9/10 26/10/11
f 22/1/12 25/4/9 26/10/11
f 21/5/13 23/8/14 26/11/11
f 23/8/14 22/12/12 26/11/11
f 22/12/1 23/8/8 13/13/15 10/14/16
f 25/4/4 7/15/17 20/16/18 21/9/5
f 14/7/7 13/13/15 23/8/8
f 8/3/3 7/15/17 25/4/4
f 10/17/16 9/18/2 22/19/1
f 20/20/18 19/21/6 21/22/5
f 66/23/19 67/24/19 68/25/19 69/26/19
f 71/27/20 70/28/21 74/29/22 72/30/23
f 77/31/24 78/32/25 68/33/26
f 74/34/27 79/35/28 72/36/29
f 80/37/30 77/31/31 68/33/32
f 118/38/33 78/32/34 77/31/35 117/39/36
f 82/40/37 83/41/37 84/42/37 85/43/37
f 76/44/38 69/45/39 83/41/40
f 86/46/41 77/31/31 80/37/30 73/47/42
f 77/31/43 86/46/43 85/48/43 84/49/43
f 83/41/40 82/40/44 87/50/45 76/44/38
f 84/49/46 112/51/47 77/31/48
f 84/42/49 83/41/50 112/52/51
f 86/46/52 114/53/53 113/54/54 85/48/55
f 86/46/56 72/55/29 79/56/28
f 87/50/45 82/40/44 74/57/57
f 89/58/58 115/59/59 113/60/60
f 82/40/61 79/61/62 74/57/63
f 86/46/41 73/47/42 72/55/64
f 69/62/65 68/63/65 78/64/65
f 69/45/66 78/65/67 83/41/68
f 119/66/69 118/67/70 81/68/71
f 116/69/72 79/61/73 82/40/74 115/59/75
f 116/70/76 89/71/77 114/53/78
f 79/56/79 116/70/76 114/53/78 86/46/80
f 89/58/81 116/69/72 115/59/75
f 83/41/82 78/65/83 118/67/70 119/66/69
f 81/72/84 118/38/33 117/39/36
f 70/73/85 87/50/45 74/57/57
f 71/74/86 72/55/64 73/47/42
f 71/74/86 73/47/42 53/75/87
f 87/50/45 70/73/85 52/76/88
f 68/33/89 67/77/90 80/37/91
f 69/45/92 76/44/93 66/78/94
f 87/50/45 52/76/88 76/44/93
f 66/78/94 76/44/93 52/76/88
f 67/77/90 53/75/87 80/37/91
f 73/47/42 80/37/91 53/75/87
f 120/79/95 117/39/96 77/31/48 112/51/47
f 117/39/96 120/79/95 81/72/97
f 83/41/50 119/66/98 120/80/99 112/52/51
f 119/66/98 81/68/100 120/80/99
f 82/40/101 85/43/102 113/60/60 115/59/59
f 89/71/103 113/54/54 114/53/53
usemtl wood
f 31/81/104 2/82/105 5/83/105 28/84/104
f 33/85/106 12/86/107 3/87/107 30/88/106
f 11/89/108 32/90/109 35/91/109 16/92/108
f 39/93/110 33/85/106 30/88/106 49/94/111
f 48/95/112 31/81/104 28/84/104 36/96/113
f 17/97/114 34/98/115 29/99/115 6/100/114
f 17/101/116 16/102/116 35/103/117 34/104/117
f 11/89/118 12/105/118 33/106/119 32/90/119
f 3/87/120 2/82/120 31/81/121 30/88/121
f 5/107/122 6/100/122 29/99/123 28/108/123
f 32/90/109 38/109/124 41/110/125 35/91/109
f 34/98/115 40/111/126 37/112/127 29/99/115
f 34/104/117 35/103/117 41/113/125 40/114/126
f 32/90/119 33/106/119 39/115/110 38/109/124
f 30/88/121 31/81/121 48/95/112 49/94/111
f 28/108/123 29/99/123 37/112/127 36/116/113
usemtl brass
f 12/105/128 11/89/128 15/117/129 4/118/130
f 96/119/131 97/120/132 7/15/131 8/3/131
f 107/121/133 99/122/133 98/123/134
f 15/124/129 16/102/135 17/101/135 18/125/136
f 100/126/137 101/127/138 13/13/137 14/7/137
f 5/107/139 1/128/140 18/129/136 6/100/139
f 102/130/141 103/131/142 19/21/141 20/20/141
f 11/89/143 16/92/143 15/117/143
f 17/97/144 6/100/144 18/129/144
f 3/87/145 12/86/145 4/132/145
f 5/83/146 2/82/146 1/133/146
f 102/134/147 20/16/148 7/15/148 97/120/149
f 100/126/150 14/7/151 19/6/151 103/135/152
f 1/133/140 2/82/153 3/87/153 4/132/130
f 109/136/154 45/137/155 50/138/156 106/139/157
f 107/121/158 51/140/159 42/141/160 104/142/161
f 59/143/162 61/144/163 60/145/163 58/146/162
f 61/147/163 62/148/164 63/149/164 60/150/163
f 62/151/164 64/152/165 65/153/165 63/154/164
f 58/155/162 65/156/165 64/157/165 59/158/162
f 60/159/166 63/160/166 65/161/166 58/162/166
f 41/110/125 38/109/124 75/163/167 121/164/168
f 37/112/127 40/111/126 122/165/169 123/166/170
f 24/167/171 91/168/172 71/169/86 53/170/87
f 27/171/173 92/172/174 91/173/172 24/174/171
f 56/175/175 93/176/176 92/172/174 27/171/173
f 45/177/155 44/178/177 90/179/178 94/180/179
f 43/181/180 42/182/160 91/173/172 92/172/174
f 44/178/177 47/183/181 95/184/182 90/179/178
f 47/185/181 46/186/183 93/187/176 95/188/182
f 46/189/183 43/181/180 92/172/174 93/176/176
f 9/18/184 99/122/185 96/190/186 8/191/184
f 13/192/187 101/193/188 98/123/189 10/17/187
f 108/194/190 100/126/150 103/135/152 111/195/191
f 110/196/192 102/134/147 97/120/149 105/197/193
f 110/198/141 111/199/142 103/131/142 102/130/141
f 108/194/137 109/200/194 101/127/138 100/126/137
f 98/123/134 106/139/134 107/121/133
f 104/201/131 105/197/132 97/120/132 96/119/131
f 42/182/160 43/181/180 105/197/132 104/201/131
f 106/139/134 51/140/159 107/121/133
f 44/178/177 45/177/155 109/200/194 108/194/137
f 46/186/183 47/185/181 111/199/142 110/198/141
f 46/189/183 110/196/192 105/197/193 43/181/180
f 44/178/177 108/194/190 111/195/191 47/183/181
f 99/122/185 107/121/158 104/142/161 96/190/186
f 101/193/188 109/136/154 106/139/157 98/123/189
f 57/202/195 95/188/182 93/187/176 56/203/175
f 54/204/196 90/179/178 95/184/182 57/205/195
f 55/206/197 94/180/179 90/179/178 54/204/196
f 52/207/88 70/208/85 94/209/179 55/210/197
f 36/116/113 37/112/127 123/166/170 124/211/198
f 38/109/124 39/115/110 88/212/199 75/163/167
f 75/163/167 88/212/199 55/206/197 54/204/196
f 121/164/168 75/163/167 54/204/196 57/205/195
f 122/213/169 121/214/168 57/202/195 56/203/175
f 123/166/170 122/165/169 56/175/175 27/171/173
f 124/211/198 123/166/170 27/171/173 24/174/171
f 40/114/126 41/113/125 121/214/168 122/213/169
f 39/93/110 49/94/111 66/215/94 88/216/199
f 48/95/112 67/217/90 66/215/94 49/94/111
f 48/95/112 36/96/113 124/218/198 67/217/90
f 53/170/87 67/217/90 124/218/198 24/167/171
f 55/210/197 88/216/199 66/215/94 52/207/88
f 50/138/156 45/137/155 94/209/179 70/208/85
f 51/140/159 106/139/134 50/138/156
f 42/141/160 51/140/159 71/169/86 91/168/172
f 64/152/200 62/151/201 15/124/129 18/125/136
f 59/158/202 64/157/200 18/129/136 1/128/140
f 61/144/203 59/143/202 1/133/140 4/132/130
f 61/147/203 4/118/130 15/117/129 62/148/201
f 98/123/134 99/122/133 10/17/133
f 99/122/133 9/18/204 10/17/133
f 51/140/159 50/138/156 70/208/85
f 70/208/85 71/169/86 51/140/159
