# Blender v2.90.1 OBJ File: 'Halberd.blend'
# www.blender.org
mtllib Halberd.mtl
o Cube.001
v 0.115450 -1.495441 0.115451
v 0.038534 -1.266440 0.072499
v -0.038536 -1.266440 0.072499
v -0.115452 -1.495441 0.115451
v 0.074771 -1.266440 0.036262
v 0.074771 -1.266440 -0.040808
v 0.031173 3.015595 -0.023907
v 0.031173 3.015595 0.023907
v 0.019125 3.016564 0.035892
v -0.019126 3.016564 0.035892
v -0.074773 -1.266440 -0.040808
v -0.074773 -1.266440 0.036262
v -0.031173 3.015595 0.023907
v -0.031173 3.015595 -0.023907
v -0.115452 -1.495441 -0.115451
v -0.038536 -1.266440 -0.077045
v 0.038534 -1.266440 -0.077045
v 0.115450 -1.495441 -0.115451
v -0.019126 3.016564 -0.035892
v 0.019125 3.016564 -0.035892
v -0.000000 3.172649 -0.104695
v -0.000000 3.172649 0.104695
v -0.071767 3.356623 0.000000
v 0.047772 2.733906 0.027602
v 0.071766 3.356623 -0.000000
v -0.000000 4.326375 0.000000
v 0.047772 2.733906 -0.027015
v 0.072168 1.238131 0.035182
v 0.072168 1.238131 -0.039728
v -0.037455 1.238131 0.069896
v 0.037454 1.238131 0.069896
v -0.072170 1.238131 -0.039728
v -0.072170 1.238131 0.035182
v 0.037454 1.238131 -0.074442
v -0.037455 1.238131 -0.074442
v 0.069873 2.338857 0.034374
v 0.069924 2.338851 -0.038799
v -0.069924 2.338851 -0.038799
v -0.069874 2.338857 0.034374
v 0.036526 2.338853 -0.072197
v -0.036527 2.338853 -0.072197
v 0.047787 2.880116 0.027301
v 0.047787 2.880116 -0.027301
v -0.047787 2.880116 -0.027301
v -0.047787 2.880116 0.027301
v 0.027391 2.880138 -0.047747
v -0.027391 2.880138 -0.047747
v 0.036421 2.338852 0.067694
v -0.036422 2.338852 0.067694
v -0.027391 2.880980 0.048262
v 0.027391 2.880980 0.048262
v -0.041233 2.734343 0.048293
v 0.041232 2.734343 0.048293
v -0.047773 2.733906 -0.027015
v -0.047773 2.733906 0.027602
v 0.027376 2.733921 -0.047449
v -0.027377 2.733921 -0.047449
v 0.046395 -1.661054 0.046396
v 0.104935 -1.587097 0.104936
v -0.046397 -1.661054 0.046396
v -0.104937 -1.587097 0.104936
v -0.104937 -1.587097 -0.104936
v -0.046397 -1.661054 -0.046396
v 0.104935 -1.587097 -0.104936
v 0.046395 -1.661054 -0.046396
v -0.038016 2.497120 0.048116
v 0.038017 2.497120 0.048116
v 0.018246 2.424701 0.155083
v -0.018246 2.424701 0.155083
v -0.041244 2.807661 0.048277
v 0.041243 2.807661 0.048277
v 0.015011 2.841612 0.125005
v 0.047869 2.721736 0.265980
v -0.015011 2.841612 0.125005
v -0.047750 2.496981 -0.027174
v -0.043076 2.609535 0.256699
v 0.082967 2.418521 0.697646
v -0.000000 2.358105 0.226328
v -0.000000 2.906712 0.216456
v 0.043076 2.609535 0.256699
v 0.000000 0.988328 0.279237
v -0.082967 2.753176 0.701722
v -0.082967 2.418521 0.697646
v -0.000000 2.598515 0.916851
v -0.000000 2.787958 0.870473
v 0.082967 2.753176 0.701722
v -0.047869 2.721736 0.265980
v -0.047750 2.496981 0.027467
v -0.000000 3.540304 0.289419
v -0.047780 2.807011 -0.027158
v 0.047779 2.807011 0.027451
v 0.047779 2.807011 -0.027158
v 0.027383 2.807029 -0.047598
v -0.047780 2.807011 0.027451
v -0.027384 2.807029 -0.047598
v 0.039480 2.947856 0.025604
v 0.039480 2.947856 -0.025604
v -0.023259 2.948772 0.042077
v 0.023258 2.948772 0.042077
v -0.039480 2.947856 -0.025604
v -0.039480 2.947856 0.025604
v 0.023258 2.948351 -0.041819
v -0.023259 2.948351 -0.041819
v 0.043633 2.913986 0.026452
v 0.043633 2.913986 -0.026452
v -0.025325 2.914876 0.045169
v 0.025324 2.914876 0.045169
v -0.043634 2.913986 -0.026452
v -0.043634 2.913986 0.026452
v 0.025324 2.914244 -0.044783
v -0.025325 2.914244 -0.044783
v 0.000000 2.307148 0.837128
v -0.000000 3.248375 0.437631
v 0.050804 3.102154 0.417398
v -0.050804 3.102154 0.417398
v 0.000000 3.030731 0.288955
v 0.034197 1.396456 0.308965
v -0.000000 1.457702 0.210109
v -0.034196 1.396456 0.308965
v -0.000000 1.480402 0.433671
v -0.027354 2.496988 -0.047588
v 0.027354 2.496988 -0.047588
v 0.047749 2.496981 -0.027174
v 0.047749 2.496981 0.027467
vt 0.214846 0.237268
vt 0.184752 0.263335
vt 0.182289 0.263401
vt 0.171870 0.206419
vt 0.116945 0.237232
vt 0.084542 0.263291
vt 0.084859 0.263408
vt 0.062022 0.206419
vt 0.171654 0.044604
vt 0.062243 0.044604
vt 0.019044 0.237268
vt 0.051600 0.263401
vt 0.049138 0.263335
vt 0.149031 0.263407
vt 0.149347 0.263291
vt 0.310286 0.736610
vt 0.340406 0.736551
vt 0.327076 0.764191
vt 0.462709 0.070775
vt 0.443296 0.070731
vt 0.454692 0.043199
vt 0.985010 0.023970
vt 0.946420 0.023970
vt 0.956455 0.017426
vt 0.974975 0.017426
vt 0.987736 0.034055
vt 0.945871 0.034055
vt 0.959185 0.028535
vt 0.974422 0.028535
vt 0.689255 0.111629
vt 0.866735 0.099984
vt 0.895170 0.111967
vt 0.952905 0.068994
vt 0.960523 0.059901
vt 0.968141 0.068994
vt 0.859316 0.142552
vt 0.871938 -0.050199
vt 0.841936 -0.059823
vt 0.435925 0.154966
vt 0.445068 0.210655
vt 0.350336 0.178274
vt 0.364004 0.148720
vt 0.617185 0.179419
vt 0.655517 0.212507
vt 0.679222 0.166678
vt 0.855949 0.160959
vt 0.608052 0.172797
vt 0.597939 0.141524
vt 0.613404 0.160616
vt 0.633030 0.093153
vt 0.381987 0.223469
vt 0.787740 0.224113
vt 0.769596 0.249012
vt 0.916156 0.180943
vt 0.878752 0.193074
vt 0.673732 0.140631
vt 0.600977 0.025200
vt 0.545294 0.097461
vt 0.527241 0.072565
vt 0.636306 0.128500
vt 0.976517 0.047735
vt 0.994812 0.047180
vt 0.992400 0.055705
vt 0.629690 0.228703
vt 0.615536 0.403751
vt 0.653827 0.405237
vt 0.654186 0.499583
vt 0.605153 0.109039
vt 0.847550 0.212536
vt 0.843315 0.296378
vt 0.859280 -0.127857
vt 0.710554 0.146778
vt 0.952891 0.174800
vt 0.952798 0.162788
vt 0.710494 0.158787
vt 0.950444 0.123780
vt 0.708750 0.198222
vt 0.792693 -0.045384
vt 0.554310 0.372774
vt 0.324112 0.438154
vt 0.311664 0.021563
vt 0.342905 0.021378
vt 0.334490 0.438059
vt 0.288999 0.438139
vt 0.241405 0.021555
vt 0.272659 0.021631
vt 0.299384 0.438197
vt 0.079132 0.978593
vt 0.073498 0.561730
vt 0.084669 0.561743
vt 0.111134 0.978658
vt 0.294306 0.621891
vt 0.306491 0.621935
vt 0.334283 0.621887
vt 0.346461 0.621800
vt 0.122728 0.978657
vt 0.149209 0.561743
vt 0.160379 0.561730
vt 0.154729 0.978593
vt 0.428806 0.784522
vt 0.389693 0.784433
vt 0.415727 0.368696
vt 0.453744 0.368782
vt 0.040160 0.978593
vt 0.042619 0.561730
vt 0.193701 0.978592
vt 0.191259 0.561730
vt 0.074728 0.377951
vt 0.087778 0.377952
vt 0.146107 0.377951
vt 0.159156 0.377951
vt 0.427446 0.185224
vt 0.464520 0.185309
vt 0.042473 0.377950
vt 0.191412 0.377950
vt 0.121480 1.011211
vt 0.004549 1.011211
vt 0.187581 0.274662
vt 0.150550 0.274733
vt 0.320748 0.719226
vt 0.341473 0.725243
vt 0.307008 0.725309
vt 0.348621 0.817570
vt 0.465804 0.817837
vt 0.083338 0.274732
vt 0.046308 0.274662
vt 0.229312 1.011211
vt 0.112381 1.011211
vt 0.464111 0.082117
vt 0.440504 0.082063
vt 0.232021 -0.011207
vt 0.349207 -0.011412
vt 0.141794 0.274650
vt 0.092094 0.274650
vt 0.301921 0.719366
vt 0.312394 0.713525
vt 0.306791 0.713795
vt 0.333202 0.719238
vt 0.337942 0.713741
vt 0.343829 0.713476
vt 0.350830 0.719283
vt 0.343245 -0.024702
vt 0.236732 -0.024515
vt 0.265856 -0.037045
vt 0.312949 -0.037127
vt 0.011560 1.024404
vt 0.117841 1.024404
vt 0.090172 1.036757
vt 0.043182 1.036757
vt 0.353132 0.831045
vt 0.459642 0.831288
vt 0.429156 0.843894
vt 0.382065 0.843787
vt 0.190678 1.036758
vt 0.143688 1.036758
vt 0.116019 1.024404
vt 0.222300 1.024404
vt 1.000000 0.000000
vt 1.000000 0.009082
vt 0.952905 0.009082
vt 0.952905 0.000000
vt 0.069887 0.351335
vt 0.085084 0.351306
vt 0.148802 0.351306
vt 0.163999 0.351334
vt 0.347873 0.688829
vt 0.349025 0.701342
vt 0.340663 0.701468
vt 0.341622 0.688643
vt 0.161602 0.311182
vt 0.159317 0.298422
vt 0.186940 0.298422
vt 0.187753 0.311182
vt 0.148224 0.311166
vt 0.148274 0.298420
vt 0.045739 0.286235
vt 0.070484 0.286284
vt 0.074571 0.298422
vt 0.046948 0.298422
vt 0.163405 0.286284
vt 0.188149 0.286234
vt 0.084262 0.286232
vt 0.085614 0.298420
vt 0.437696 0.093649
vt 0.465498 0.093712
vt 0.464747 0.105897
vt 0.436953 0.105833
vt 0.149626 0.286232
vt 0.355201 0.725046
vt 0.352579 0.736362
vt 0.298187 0.736460
vt 0.295227 0.725151
vt 0.076686 0.280512
vt 0.078827 0.280607
vt 0.155063 0.280607
vt 0.157203 0.280512
vt 0.464782 0.088285
vt 0.439077 0.088226
vt 0.045123 0.280493
vt 0.188766 0.280494
vt 0.436193 0.118288
vt 0.463980 0.118352
vt 0.072286 0.311182
vt 0.085664 0.311166
vt 0.046134 0.311183
vt 0.305430 0.688707
vt 0.307595 0.701526
vt 0.298186 0.701431
vt 0.299197 0.688915
vt 0.188388 0.351335
vt 0.045498 0.351335
vt 0.461510 0.158465
vt 0.433745 0.158401
vt 0.303086 0.648485
vt 0.296730 0.648569
vt 0.340184 0.648420
vt 0.346546 0.648481
vn -0.6450 -0.4118 0.6437
vn 0.6075 -0.2621 0.7498
vn 0.9689 -0.1068 0.2232
vn 0.9946 -0.1038 0.0000
vn 0.6450 -0.4118 -0.6437
vn -0.6075 -0.2621 -0.7498
vn -0.9689 -0.1068 -0.2232
vn -0.9946 -0.1038 0.0000
vn 0.9973 0.0738 0.0000
vn 0.8140 0.0469 -0.5790
vn 0.0546 0.0627 0.9965
vn 0.6468 0.0268 0.7622
vn -0.8140 0.0469 -0.5790
vn -0.9973 0.0738 0.0000
vn -0.9689 -0.1068 0.2232
vn -0.6075 -0.2621 0.7498
vn 0.9689 -0.1068 -0.2232
vn 0.6075 -0.2621 -0.7498
vn 0.0000 -0.8281 -0.5606
vn -0.0775 0.9966 -0.0295
vn 0.0775 0.9966 -0.0295
vn 0.0270 0.9994 -0.0232
vn -0.0271 0.9994 -0.0232
vn 0.9378 -0.3302 -0.1075
vn 0.9227 -0.3522 -0.1565
vn 0.9329 -0.3335 -0.1358
vn 0.0000 0.8147 -0.5799
vn 0.6094 0.4690 -0.6393
vn 0.2298 0.4213 -0.8774
vn 0.9941 -0.0361 -0.1019
vn 0.9952 -0.0231 -0.0949
vn 0.9906 -0.0677 -0.1189
vn 0.9846 -0.0015 -0.1747
vn 0.9906 -0.0448 -0.1292
vn 0.9914 -0.0356 -0.1261
vn 0.9781 -0.0469 -0.2027
vn -0.9250 0.0306 0.3787
vn -0.9941 -0.0361 -0.1019
vn -0.9906 -0.0677 -0.1189
vn -0.9952 -0.0231 -0.0949
vn 0.9978 -0.0184 -0.0631
vn 0.9962 0.0859 -0.0134
vn 0.9250 0.0306 0.3787
vn -0.9961 0.0144 -0.0874
vn -0.9952 0.0964 -0.0163
vn 0.8922 -0.1192 0.4356
vn 0.9007 -0.1600 0.4040
vn 0.8961 -0.1105 0.4298
vn -0.8922 -0.1192 0.4356
vn -0.8995 -0.1535 0.4091
vn -0.9007 -0.1600 0.4040
vn 0.8871 0.2441 0.3918
vn 0.9214 0.2688 0.2805
vn 0.8681 0.2586 0.4237
vn 0.8904 0.3212 0.3226
vn 0.9708 0.2311 -0.0648
vn -0.9116 0.3918 0.1245
vn -0.8304 0.2507 0.4976
vn -0.9214 0.2688 0.2805
vn -0.8681 0.2586 0.4237
vn -0.9708 0.2311 -0.0648
vn -0.9561 0.2625 -0.1304
vn -0.9663 0.2378 -0.0988
vn 0.6457 0.6499 0.4009
vn 0.0000 -0.7305 -0.6829
vn -0.9329 -0.3335 -0.1358
vn -0.9227 -0.3522 -0.1565
vn -0.9378 -0.3302 -0.1075
vn -0.9781 -0.0469 -0.2027
vn -0.9846 -0.0015 -0.1747
vn -0.9545 -0.0563 -0.2928
vn -0.9798 -0.0354 -0.1970
vn -0.9927 0.0093 -0.1199
vn -0.9878 0.0418 -0.1503
vn -0.9755 0.0324 -0.2177
vn 0.9798 -0.0354 -0.1970
vn 0.9460 0.0121 -0.3240
vn 0.9755 0.0324 -0.2177
vn 0.9927 0.0093 -0.1199
vn 0.9877 0.0418 -0.1503
vn -0.9460 0.0121 -0.3240
vn -0.9914 -0.0356 -0.1261
vn -0.9906 -0.0448 -0.1292
vn 0.9545 -0.0563 -0.2928
vn 0.2609 0.3818 0.8866
vn 0.1206 0.1813 0.9760
vn -0.0054 0.9256 0.3785
vn 0.0283 0.9996 -0.0047
vn 0.9833 -0.1691 0.0673
vn 0.7155 -0.0188 0.6984
vn 0.9983 -0.0575 -0.0055
vn -0.9833 -0.1691 0.0673
vn -0.9983 -0.0575 -0.0055
vn -0.7442 -0.0549 0.6657
vn 0.9133 -0.1694 0.3704
vn 0.9613 -0.1036 0.2553
vn 0.9396 -0.1025 0.3267
vn -0.9613 -0.1036 0.2553
vn -0.9133 -0.1694 0.3704
vn -0.9396 -0.1025 0.3267
vn -0.8871 0.2441 0.3918
vn -0.8904 0.3212 0.3226
vn 0.8304 0.2507 0.4976
vn 0.7068 0.0015 0.7074
vn 0.7071 0.0010 0.7071
vn -0.7068 0.0015 0.7074
vn -0.7071 0.0010 0.7071
vn -0.7071 0.0010 -0.7071
vn -0.7071 0.0015 -0.7071
vn -0.8667 -0.3734 0.3309
vn -0.2722 -0.7330 0.6234
vn 0.3631 -0.4205 0.8315
vn 0.8666 -0.3734 0.3309
vn 0.7071 0.0010 -0.7071
vn 0.7071 0.0015 -0.7071
vn 0.0000 0.0010 -1.0000
vn 0.0000 0.0015 -1.0000
vn -1.0000 0.0010 0.0000
vn -1.0000 0.0016 0.0002
vn 0.0000 0.0010 1.0000
vn 0.0000 0.0015 1.0000
vn 1.0000 0.0010 -0.0000
vn 1.0000 0.0016 0.0002
vn -0.9209 0.0728 -0.3829
vn -0.3810 0.0767 -0.9214
vn 0.3810 0.0767 -0.9214
vn 0.9209 0.0728 -0.3829
vn -0.9846 0.1749 -0.0000
vn -0.7078 0.0250 -0.7059
vn -0.7058 0.0306 0.7077
vn 0.9926 0.1217 0.0000
vn 0.9958 0.0914 0.0002
vn 0.0000 0.0909 0.9959
vn 0.9471 -0.2187 -0.2349
vn -0.0000 0.1654 -0.9862
vn 0.7078 0.0250 -0.7059
vn -0.9926 0.1217 -0.0000
vn -0.9873 0.1591 -0.0023
vn 0.9846 0.1749 0.0000
vn 0.7058 0.0306 0.7077
vn 0.0000 0.0866 -0.9962
vn 0.0017 0.1074 -0.9942
vn -0.6661 0.3355 -0.6661
vn 0.6661 0.3355 -0.6661
vn -0.6631 0.3471 0.6631
vn 0.6631 0.3471 0.6631
vn 0.7062 0.0830 -0.7031
vn 0.7051 0.1039 -0.7014
vn 0.7048 0.1038 -0.7017
vn -0.7001 0.1341 -0.7013
vn -0.7051 0.1039 -0.7014
vn -0.7048 0.1038 -0.7017
vn 0.0000 0.1844 0.9829
vn -0.7134 0.1058 0.6928
vn -0.8215 0.4923 0.2878
vn -0.0196 0.6584 -0.7524
vn -0.4791 0.0893 -0.8732
vn 0.7133 0.1058 0.6928
vn -0.6484 0.3878 -0.6551
vn 0.8215 0.4923 0.2878
vn 0.7165 0.0681 0.6942
vn 0.4711 -0.7458 0.4711
vn -0.4711 -0.7458 0.4711
vn -0.4711 -0.7458 -0.4711
vn 0.4711 -0.7458 -0.4711
vn 0.0000 -1.0000 -0.0000
vn -0.7901 0.0856 -0.6070
vn -0.3760 -0.1782 -0.9093
vn 0.6091 0.0901 -0.7879
vn 0.9076 -0.1829 -0.3778
vn 0.9401 -0.1092 -0.3229
vn 0.9150 0.0260 0.4026
vn 0.7951 0.5091 -0.3296
vn 0.9619 -0.0009 -0.2736
vn 0.3295 0.5090 -0.7952
vn 0.4358 0.0915 -0.8954
vn -0.9198 0.0946 -0.3808
vn -0.9620 -0.0009 -0.2730
vn -0.9593 0.1880 0.2105
vn 0.9198 0.0945 -0.3808
vn -0.3832 0.0739 -0.9207
vn -0.4830 -0.0021 -0.8756
vn 0.3832 0.0739 -0.9207
vn 0.7090 0.1056 0.6973
vn 0.7107 0.1057 0.6955
vn 0.7140 0.0681 0.6968
vn -0.7090 0.1056 0.6973
vn -0.7108 0.1057 0.6954
vn -0.4821 0.0896 -0.8715
vn -0.6998 0.1341 -0.7017
vn -0.7044 0.1038 -0.7021
vn 0.7058 0.0830 -0.7035
vn 0.7044 0.1038 -0.7021
vn -0.3296 0.5088 -0.7953
vn -0.7951 0.5091 -0.3296
vn -0.9457 -0.0567 -0.3202
vn 0.7119 0.1633 0.6830
vn -0.9875 0.0635 -0.1444
vn 0.6980 -0.1602 -0.6980
vn -0.6980 -0.1602 -0.6980
vn 0.6980 -0.1602 0.6980
vn -0.6980 -0.1602 0.6980
vn -0.0338 0.1011 0.9943
usemtl steel
s 1
f 22/1/1 9/2/2 8/3/3 25/4/4
f 21/5/5 19/6/6 14/7/7 23/8/8
f 25/4/9 21/5/10 26/9/11
f 22/1/12 25/4/9 26/9/11
f 21/5/13 23/8/14 26/10/11
f 23/8/14 22/11/12 26/10/11
f 22/11/1 23/8/8 13/12/15 10/13/16
f 25/4/4 7/14/17 20/15/18 21/5/5
f 14/7/7 13/12/15 23/8/8
f 8/3/3 7/14/17 25/4/4
f 10/16/16 9/17/2 22/18/1
f 20/19/18 19/20/6 21/21/5
f 66/22/19 67/23/19 68/24/19 69/25/19
f 71/26/20 70/27/21 74/28/22 72/29/23
f 77/30/24 78/31/25 68/32/26
f 74/33/27 79/34/28 72/35/29
f 80/36/30 77/30/31 68/32/32
f 118/37/33 78/31/34 77/30/35 117/38/36
f 82/39/37 83/40/37 84/41/37 85/42/37
f 76/43/38 69/44/39 83/40/40
f 86/45/41 77/30/31 80/36/30 73/46/42
f 77/30/43 86/45/43 85/47/43 84/48/43
f 83/40/40 82/39/44 87/49/45 76/43/38
f 84/48/46 112/50/47 77/30/48
f 84/41/49 83/40/50 112/51/51
f 86/45/52 114/52/53 113/53/54 85/47/55
f 86/45/56 72/54/29 79/55/28
f 87/49/45 82/39/44 74/56/57
f 89/57/58 115/58/59 113/59/60
f 82/39/61 79/60/62 74/56/63
f 86/45/41 73/46/42 72/54/64
f 69/61/65 68/62/65 78/63/65
f 69/44/66 78/64/67 83/40/68
f 119/65/69 118/66/70 81/67/71
f 116/68/72 79/60/73 82/39/74 115/58/75
f 116/69/76 89/70/77 114/52/78
f 79/55/79 116/69/76 114/52/78 86/45/80
f 89/57/81 116/68/72 115/58/75
f 83/40/82 78/64/83 118/66/70 119/65/69
f 81/71/84 118/37/33 117/38/36
f 70/72/85 87/49/45 74/56/57
f 71/73/86 72/54/64 73/46/42
f 71/73/86 73/46/42 53/74/87
f 87/49/45 70/72/85 52/75/88
f 68/32/89 67/76/90 80/36/91
f 69/44/92 76/43/93 66/77/94
f 87/49/45 52/75/88 76/43/93
f 66/77/94 76/43/93 52/75/88
f 67/76/90 53/74/87 80/36/91
f 73/46/42 80/36/91 53/74/87
f 120/78/95 117/38/96 77/30/48 112/50/47
f 117/38/96 120/78/95 81/71/97
f 83/40/50 119/65/98 120/79/99 112/51/51
f 119/65/98 81/67/100 120/79/99
f 82/39/101 85/42/102 113/59/60 115/58/59
f 89/70/103 113/53/54 114/52/53
usemtl wood
f 31/80/104 2/81/105 5/82/105 28/83/104
f 33/84/106 12/85/107 3/86/107 30/87/106
f 11/88/108 32/89/109 35/90/109 16/91/108
f 39/92/110 33/84/106 30/87/106 49/93/111
f 48/94/112 31/80/104 28/83/104 36/95/113
f 17/96/114 34/97/115 29/98/115 6/99/114
f 17/100/116 16/101/116 35/102/117 34/103/117
f 11/88/118 12/104/118 33/105/119 32/89/119
f 3/86/120 2/81/120 31/80/121 30/87/121
f 5/106/122 6/99/122 29/98/123 28/107/123
f 32/89/109 38/108/124 41/109/125 35/90/109
f 34/97/115 40/110/126 37/111/127 29/98/115
f 34/103/117 35/102/117 41/112/125 40/113/126
f 32/89/119 33/105/119 39/114/110 38/108/124
f 30/87/121 31/80/121 48/94/112 49/93/111
f 28/107/123 29/98/123 37/111/127 36/115/113
usemtl brass
f 12/104/128 11/88/128 15/116/129 4/117/130
f 96/118/131 97/119/132 7/14/131 8/3/131
f 107/120/133 99/121/133 98/122/134
f 15/123/129 16/101/135 17/100/135 18/124/136
f 100/125/137 101/126/138 13/12/137 14/7/137
f 5/106/139 1/127/140 18/128/136 6/99/139
f 102/129/141 103/130/142 19/20/141 20/19/141
f 11/88/143 16/91/143 15/116/143
f 17/96/144 6/99/144 18/128/144
f 3/86/145 12/85/145 4/131/145
f 5/82/146 2/81/146 1/132/146
f 102/133/147 20/15/148 7/14/148 97/119/149
f 100/125/150 14/7/151 19/6/151 103/134/152
f 1/132/140 2/81/153 3/86/153 4/131/130
f 109/135/154 45/136/155 50/137/156 106/138/157
f 107/120/158 51/139/159 42/140/160 104/141/161
f 59/142/162 61/143/163 60/144/163 58/145/162
f 61/146/163 62/147/164 63/148/164 60/149/163
f 62/150/164 64/151/165 65/152/165 63/153/164
f 58/154/162 65/155/165 64/156/165 59/157/162
f 60/158/166 63/159/166 65/160/166 58/161/166
f 41/109/125 38/108/124 75/162/167 121/163/168
f 37/111/127 40/110/126 122/164/169 123/165/170
f 24/166/171 91/167/172 71/168/86 53/169/87
f 27/170/173 92/171/174 91/172/172 24/173/171
f 56/174/175 93/175/176 92/171/174 27/170/173
f 45/176/155 44/177/177 90/178/178 94/179/179
f 43/180/180 42/181/160 91/172/172 92/171/174
f 44/177/177 47/182/181 95/183/182 90/178/178
f 47/184/181 46/185/183 93/186/176 95/187/182
f 46/188/183 43/180/180 92/171/174 93/175/176
f 9/17/184 99/121/185 96/189/186 8/190/184
f 13/191/187 101/192/188 98/122/189 10/16/187
f 108/193/190 100/125/150 103/134/152 111/194/191
f 110/195/192 102/133/147 97/119/149 105/196/193
f 110/197/141 111/198/142 103/130/142 102/129/141
f 108/193/137 109/199/138 101/126/138 100/125/137
f 98/122/134 106/138/134 107/120/133
f 104/200/131 105/196/132 97/119/132 96/118/131
f 42/181/160 43/180/180 105/196/132 104/200/131
f 106/138/134 51/139/159 107/120/133
f 44/177/177 45/176/155 109/199/138 108/193/137
f 46/185/183 47/184/181 111/198/142 110/197/141
f 46/188/183 110/195/192 105/196/193 43/180/180
f 44/177/177 108/193/190 111/194/191 47/182/181
f 99/121/185 107/120/158 104/141/161 96/189/186
f 101/192/188 109/135/154 106/138/157 98/122/189
f 57/201/194 95/187/182 93/186/176 56/202/175
f 54/203/195 90/178/178 95/183/182 57/204/194
f 55/205/196 94/179/179 90/178/178 54/203/195
f 52/206/88 70/207/85 94/208/179 55/209/196
f 36/115/113 37/111/127 123/165/170 124/210/197
f 38/108/124 39/114/110 88/211/198 75/162/167
f 75/162/167 88/211/198 55/205/196 54/203/195
f 121/163/168 75/162/167 54/203/195 57/204/194
f 122/212/169 121/213/168 57/201/194 56/202/175
f 123/165/170 122/164/169 56/174/175 27/170/173
f 124/210/197 123/165/170 27/170/173 24/173/171
f 40/113/126 41/112/125 121/213/168 122/212/169
f 39/92/110 49/93/111 66/214/94 88/215/198
f 48/94/112 67/216/90 66/214/94 49/93/111
f 48/94/112 36/95/113 124/217/197 67/216/90
f 53/169/87 67/216/90 124/217/197 24/166/171
f 55/209/196 88/215/198 66/214/94 52/206/88
f 50/137/156 45/136/155 94/208/179 70/207/85
f 51/139/159 106/138/134 50/137/156
f 42/140/160 51/139/159 71/168/86 91/167/172
f 64/151/199 62/150/200 15/123/129 18/124/136
f 59/157/201 64/156/199 18/128/136 1/127/140
f 61/143/202 59/142/201 1/132/140 4/131/130
f 61/146/202 4/117/130 15/116/129 62/147/200
f 98/122/134 99/121/133 10/16/133
f 99/121/133 9/17/203 10/16/133
f 51/139/159 50/137/156 70/207/85
f 70/207/85 71/168/86 51/139/159
