# Blender v2.90.1 OBJ File: 'spear.blend'
# www.blender.org
mtllib Spear.mtl
o Cube.001
v -0.115451 -2.265687 0.115450
v -0.115451 -2.265622 0.115450
v -0.075326 -1.740695 0.038762
v -0.075326 -1.740695 -0.038764
v -0.115451 -2.265622 -0.115452
v -0.115451 -2.265687 -0.115452
v -0.038763 -1.740695 0.075325
v 0.038763 -1.740695 0.075325
v 0.038763 2.661094 0.075325
v -0.038763 2.661094 0.075325
v -0.075326 2.661094 0.038763
v -0.075326 2.661094 -0.038763
v 0.115451 -2.265687 -0.115452
v 0.115451 -2.265687 0.115450
v 0.038763 -1.740695 -0.075327
v -0.038763 -1.740695 -0.075327
v -0.038763 2.661094 -0.075326
v 0.038763 2.661094 -0.075326
v 0.115451 -2.265622 -0.115452
v 0.075326 -1.740695 -0.038764
v 0.075326 -1.740695 0.038762
v 0.115451 -2.265622 0.115450
v -0.115451 2.731523 -0.115451
v -0.207379 2.791996 0.042247
v -0.207379 2.791996 -0.042247
v 0.075326 2.661094 -0.038763
v 0.075326 2.661094 0.038763
v -0.042247 2.791996 0.207379
v -0.115456 2.731519 0.115455
v 0.042247 2.791996 0.207379
v 0.115451 2.731523 0.115451
v 0.207379 2.791996 0.042247
v 0.207379 2.791996 -0.042247
v 0.172954 2.818398 -0.028747
v 0.172954 2.818398 0.028747
v -0.172954 2.818398 0.028747
v -0.172954 2.818398 -0.028747
v 0.042247 2.791996 -0.207380
v -0.042247 2.791996 -0.207380
v -0.028747 2.818398 -0.172955
v 0.028747 2.818398 -0.172955
v -0.091625 3.195633 0.091625
v 0.000000 3.467961 -0.000000
v -0.091625 3.195633 -0.091625
v 0.028747 2.818398 0.172954
v 0.091625 3.195633 0.091625
v -0.028747 2.818398 0.172954
v 0.091625 3.195633 -0.091625
v 0.115451 2.731523 -0.115451
vt 0.410203 0.577553
vt 0.552521 0.577553
vt 0.552521 0.718880
vt 0.292688 0.512190
vt 0.292688 0.734621
vt 0.253607 0.623405
vt 0.331769 0.512190
vt 0.331769 0.734621
vt 0.292688 0.623405
vt 0.290688 0.734621
vt 0.290688 0.891904
vt 0.253607 0.823327
vt 0.327768 0.734621
vt 0.327768 0.891903
vt 0.290688 0.803197
vt 0.694840 0.577553
vt 0.552521 0.436225
vt 0.709169 0.688768
vt 0.664517 0.733110
vt 0.440526 0.733110
vt 0.395874 0.688768
vt 0.395874 0.466337
vt 0.440526 0.421996
vt 0.664517 0.421996
vt 0.709169 0.466337
vt 0.132677 0.453318
vt 0.046650 0.437657
vt 0.046650 0.017688
vt 0.132677 0.033349
vt 0.312004 0.437656
vt 0.225977 0.453318
vt 0.225977 0.033349
vt 0.312004 0.017688
vt 0.812363 0.051248
vt 0.934023 0.051248
vt 0.934022 0.478457
vt 0.812362 0.478457
vt 0.839689 0.546682
vt 0.925716 0.562343
vt 0.925716 0.982312
vt 0.839689 0.966651
vt 0.746389 0.966651
vt 0.746389 0.546682
vt 0.999996 0.051242
vt 0.999995 0.478451
vt 0.746389 0.478451
vt 0.746389 0.051242
vt 0.179327 0.512190
vt 0.179327 0.512183
vt 0.358654 0.479537
vt 0.358654 0.479543
vt 0.000000 0.764031
vt 0.000000 0.512190
vt 0.253607 0.512190
vt 0.253607 0.764031
vt 0.972366 0.520457
vt 0.972366 0.520463
vt 0.793039 0.487817
vt 0.793039 0.487810
vt 0.373194 0.192517
vt 0.424275 0.385035
vt 0.358654 0.319871
vt 0.000000 0.479543
vt 0.000000 0.479537
vt 0.680768 0.385035
vt 0.552521 0.370602
vt 0.746389 0.319871
vt 0.355411 0.512190
vt 0.355411 0.693236
vt 0.346303 0.560945
vt 0.793039 0.967354
vt 0.680768 0.385035
vt 0.746388 0.450199
vt 0.424275 0.770070
vt 0.358654 0.704906
vt 0.746388 0.704906
vt 0.680768 0.770070
vt 0.179327 0.032648
vt 0.346303 0.512190
vt 0.346303 0.766897
vt 0.331769 0.639543
vt 0.424275 0.385035
vt 0.358654 0.450199
vt 0.178597 0.856681
vt 0.178597 0.764031
vt 0.225247 0.810356
vt 0.178597 0.764031
vt 0.178597 0.856681
vt 0.131947 0.810356
vt 0.405304 0.770070
vt 0.405304 0.862721
vt 0.358654 0.816395
vt 0.131947 0.829545
vt 0.065973 0.764031
vt 0.131947 0.764031
vt 0.451954 0.770070
vt 0.451954 0.862721
vt 0.405304 0.816396
vt 0.065973 0.829545
vt 0.000000 0.764031
vt 0.065973 0.764031
vt 0.999996 0.000000
vt 0.999996 0.000007
vt 0.746389 0.000006
vt 0.746389 0.000000
vt 0.972366 1.000000
vt 0.731848 0.192517
vt 0.746388 0.065164
vt 0.680768 0.000000
vt 0.552521 0.014439
vt 0.424275 0.000000
vt 0.358654 0.065164
vt 0.746389 0.487810
vt 1.000000 0.487810
vt 0.358654 0.000000
vn -0.9478 0.3189 0.0000
vn 0.7067 0.0346 0.7067
vn -0.7067 0.0346 0.7067
vn 0.7067 0.0346 -0.7067
vn -0.7067 0.0346 -0.7067
vn 0.0000 0.3189 -0.9478
vn 0.9478 0.3189 0.0000
vn 0.0000 0.3189 0.9478
vn 0.0000 0.2108 -0.9775
vn -0.9775 0.2108 0.0000
vn 0.0000 0.2108 0.9775
vn 0.9775 0.2108 0.0000
vn 0.0000 -0.0000 1.0000
vn -1.0000 0.0000 0.0000
vn 0.0000 0.0000 -1.0000
vn 1.0000 0.0000 0.0000
vn 0.7071 -0.0000 0.7071
vn -0.7071 -0.0000 0.7071
vn -0.7071 0.0000 -0.7071
vn 0.7071 0.0000 -0.7071
vn -0.9971 0.0762 0.0000
vn 0.0000 -1.0000 0.0000
vn 0.9971 0.0762 0.0000
vn -0.5496 -0.8354 -0.0000
vn 0.0000 0.0762 0.9971
vn 0.0000 -0.8354 0.5496
vn 0.0000 -0.4950 0.8689
vn 0.0000 -0.4951 0.8689
vn 0.8689 -0.4950 0.0000
vn 0.6086 0.7935 0.0000
vn -0.6086 0.7935 0.0000
vn 0.0000 0.7935 -0.6086
vn -0.6908 -0.2138 0.6908
vn 0.0000 -0.4951 0.8688
vn -0.6907 -0.2139 -0.6907
vn -0.4346 0.7888 -0.4346
vn 0.4346 0.7888 -0.4346
vn 0.4346 0.7888 0.4346
vn -0.4346 0.7888 0.4346
vn 0.0000 0.7935 0.6086
vn 0.6985 0.1554 -0.6985
vn 0.6985 0.1554 0.6985
vn -0.6985 0.1554 -0.6985
vn -0.6985 0.1554 0.6985
vn 0.4588 -0.7609 0.4588
vn -0.4588 -0.7610 0.4587
vn 0.4588 -0.7609 -0.4588
vn -0.4588 -0.7609 -0.4588
vn -0.0000 0.0762 -0.9971
vn 0.6907 -0.2139 0.6907
vn 0.5496 -0.8354 0.0000
vn 0.6907 -0.2139 -0.6907
vn 0.0000 -0.8354 -0.5496
vn 0.0000 -0.4950 -0.8689
vn -0.8689 -0.4950 0.0000
vn -0.8689 -0.4951 -0.0000
usemtl steel
s 1
f 42/1/1 43/2/1 44/3/1
f 45/4/2 35/5/2 46/6/2
f 36/7/3 47/8/3 42/9/3
f 34/10/4 41/11/4 48/12/4
f 40/13/5 37/14/5 44/15/5
f 44/3/6 43/2/6 48/16/6
f 48/16/7 43/2/7 46/17/7
f 43/2/8 42/1/8 46/17/8
f 48/16/9 41/18/9 44/3/9
f 44/3/9 41/18/9 40/19/9
f 44/3/10 37/20/10 42/1/10
f 42/1/10 37/20/10 36/21/10
f 42/1/11 47/22/11 46/17/11
f 46/17/11 47/22/11 45/23/11
f 46/17/12 35/24/12 48/16/12
f 48/16/12 35/24/12 34/25/12
usemtl wood
f 7/26/13 8/27/13 9/28/13 10/29/13
f 4/30/14 3/31/14 11/32/14 12/33/14
f 15/34/15 16/35/15 17/36/15 18/37/15
f 21/38/16 20/39/16 26/40/16 27/41/16
f 21/38/17 27/41/17 9/42/17 8/43/17
f 11/32/18 3/31/18 7/26/18 10/29/18
f 17/36/19 16/35/19 4/44/19 12/45/19
f 15/34/20 18/37/20 26/46/20 20/47/20
usemtl brass
f 1/48/21 2/49/21 3/31/21 4/30/21 5/50/21 6/51/21
f 6/52/22 13/53/22 14/54/22 1/55/22
f 13/56/23 19/57/23 20/39/23 21/38/23 22/58/23 14/59/23
f 23/60/24 24/61/24 25/62/24
f 14/63/25 22/64/25 8/27/25 7/26/25 2/49/25 1/48/25
f 28/65/26 29/66/26 30/67/26
f 31/68/27 29/69/28 9/70/28
f 27/41/29 26/40/29 31/71/29
f 32/72/30 33/73/30 34/25/30 35/24/30
f 25/74/31 24/75/31 36/21/31 37/20/31
f 38/76/32 39/77/32 40/19/32 41/18/32
f 23/60/24 29/66/24 24/61/24
f 28/65/33 24/61/33 29/66/33
f 9/28/28 29/78/28 10/29/34
f 25/79/35 39/80/35 23/81/35
f 25/74/36 37/20/36 40/19/36 39/77/36
f 34/25/37 33/73/37 38/76/37 41/18/37
f 45/23/38 30/82/38 32/72/38 35/24/38
f 28/83/39 47/22/39 36/21/39 24/75/39
f 28/83/40 30/82/40 45/23/40 47/22/40
f 15/84/41 20/85/41 19/86/41
f 21/38/42 8/43/42 22/58/42
f 4/87/43 16/88/43 5/89/43
f 7/26/44 3/31/44 2/49/44
f 9/90/45 27/91/45 31/92/45
f 11/93/46 10/94/46 29/95/46
f 26/96/47 18/97/47 49/98/47
f 17/99/48 12/100/48 23/101/48
f 6/102/49 5/103/49 16/35/49 15/34/49 19/104/49 13/105/49
f 49/106/29 31/71/29 26/40/29
f 30/67/50 31/107/50 32/108/50
f 32/108/51 31/107/51 33/109/51
f 31/107/51 49/110/51 33/109/51
f 33/109/52 49/110/52 38/111/52
f 39/112/53 38/111/53 49/110/53
f 49/110/53 23/60/53 39/112/53
f 18/37/54 17/36/54 49/113/54
f 17/36/54 23/114/54 49/113/54
f 30/67/26 29/66/26 31/107/26
f 12/33/55 11/32/56 23/115/56
f 11/32/56 29/78/56 23/115/56
l 23 31
