# Blender v2.90.1 OBJ File: 'sword.blend'
# www.blender.org
mtllib sword.mtl
o Cube
v 0.035843 0.028550 -0.038984
v 0.035843 0.028550 0.038984
v -0.035843 0.028550 -0.038984
v -0.035843 0.028550 0.038984
v 0.000000 1.779207 0.155409
v 0.000000 1.779207 -0.155409
v 0.000000 2.018393 0.000000
v -0.027714 0.413299 0.053855
v -0.027719 0.413309 -0.053856
v 0.027714 0.413299 0.053855
v 0.027719 0.413309 -0.053856
v 0.000000 0.513912 0.155409
v 0.000000 0.513912 -0.155409
v -0.101504 0.513912 0.179872
v -0.049892 0.403658 0.179872
v 0.049892 0.403658 0.179872
v 0.101504 0.513912 0.179872
v -0.101504 0.513912 -0.178877
v -0.049892 0.403658 -0.178877
v 0.049892 0.403658 -0.178877
v 0.101504 0.513912 -0.178877
v 0.057196 0.024716 0.000000
v -0.057196 0.024716 0.000000
v 0.091541 1.648747 0.000000
v -0.091541 1.648747 0.000000
v -0.058857 0.401876 0.000002
v 0.058857 0.401876 0.000002
v -0.091541 0.513912 0.000000
v 0.091541 0.513912 0.000000
v 0.073178 -0.064524 -0.041121
v 0.052230 -0.072127 -0.037114
v 0.057870 -0.064524 -0.051999
v 0.082830 -0.055259 -0.047880
v 0.067176 -0.055385 -0.058612
v 0.086097 -0.038871 -0.061179
v 0.052230 -0.072127 0.037114
v 0.073178 -0.064524 0.041121
v 0.057870 -0.064524 0.051999
v 0.082830 -0.055259 0.047880
v 0.086097 -0.038871 0.061179
v 0.067176 -0.055385 0.058612
v -0.052230 -0.072127 -0.037114
v -0.073178 -0.064524 -0.041121
v -0.057870 -0.064524 -0.051999
v -0.082830 -0.055259 -0.047880
v -0.086097 -0.038871 -0.061179
v -0.067176 -0.055385 -0.058612
v -0.052230 -0.072127 0.037114
v -0.057870 -0.064524 0.051999
v -0.073178 -0.064524 0.041121
v -0.067176 -0.055385 0.058612
v -0.086097 -0.038871 0.061179
v -0.082830 -0.055259 0.047880
v -0.083640 -0.054949 -0.009383
v -0.083640 -0.054949 0.009383
v -0.088354 -0.038383 0.000000
v -0.073432 -0.064658 -0.009384
v -0.052230 -0.072127 -0.009384
v -0.052230 -0.072127 0.009384
v -0.073432 -0.064658 0.009384
v 0.083640 -0.054949 0.009383
v 0.083640 -0.054949 -0.009383
v 0.088354 -0.038383 0.000000
v 0.073432 -0.064658 0.009384
v 0.052230 -0.072127 0.009384
v 0.052230 -0.072127 -0.009384
v 0.073432 -0.064658 -0.009384
v -0.057815 0.587686 -0.250997
v -0.101504 0.555930 -0.219953
v -0.081701 0.449125 -0.223325
v -0.057815 0.477432 -0.250997
v 0.057815 0.477432 -0.250997
v 0.081701 0.449125 -0.223325
v 0.101504 0.555930 -0.219953
v 0.057815 0.587686 -0.250997
v -0.101504 0.556192 0.221548
v -0.057815 0.587686 0.252593
v -0.057815 0.477432 0.252593
v -0.081831 0.449311 0.224874
v 0.081831 0.449311 0.224874
v 0.057815 0.477432 0.252593
v 0.057815 0.587686 0.252593
v 0.101504 0.556192 0.221548
vt 0.113753 1.000000
vt 0.000000 0.840733
vt 0.107970 0.755554
vt 0.453584 0.839617
vt 0.332685 0.756284
vt 0.332685 0.006601
vt 0.453584 0.003751
vt 0.227505 0.841411
vt 0.227505 0.835866
vt 0.227505 0.000000
vt 0.227505 0.000678
vt 0.107970 0.001506
vt 0.000000 0.000000
vt 0.340544 0.995750
vt 0.886350 0.250151
vt 0.848790 0.250151
vt 0.853050 0.000000
vt 0.882091 0.000000
vt 0.568515 0.496797
vt 0.594875 0.493995
vt 0.625137 0.493789
vt 0.658362 0.746166
vt 0.616075 0.742503
vt 0.580139 0.750315
vt 0.872843 0.688578
vt 0.835284 0.688578
vt 0.839540 0.433250
vt 0.868586 0.433250
vt 0.609063 0.061446
vt 0.636241 0.059175
vt 0.666132 0.061446
vt 0.678468 0.316988
vt 0.637056 0.309801
vt 0.599628 0.316995
vt 0.822461 0.296845
vt 0.912679 0.296845
vt 0.641867 0.000000
vt 0.665114 0.000086
vt 0.669474 0.006367
vt 0.641246 0.006584
vt 0.588777 0.454225
vt 0.544502 0.456135
vt 0.987302 0.153148
vt 0.987302 0.098481
vt 0.994149 0.094086
vt 0.994149 0.157544
vt 0.875643 0.323621
vt 0.822461 0.307360
vt 0.928824 0.307360
vt 0.619760 0.818171
vt 0.862136 0.766280
vt 0.915317 0.750681
vt 0.910097 0.869580
vt 0.968187 0.495191
vt 0.915907 0.495191
vt 0.899172 0.456860
vt 0.911755 0.433250
vt 0.972338 0.433250
vt 0.984921 0.456860
vt 0.827681 0.426921
vt 0.956567 0.572003
vt 0.927526 0.572003
vt 0.766294 0.384796
vt 0.769284 0.310869
vt 0.800318 0.341617
vt 0.796903 0.412889
vt 0.808954 0.750681
vt 0.635264 0.384667
vt 0.940441 0.307360
vt 0.969487 0.307360
vt 0.981104 0.387832
vt 0.928824 0.387832
vt 0.912679 0.262366
vt 0.912679 0.166480
vt 0.948445 0.166480
vt 0.975476 0.187116
vt 0.975476 0.241731
vt 0.948445 0.262366
vt 0.972270 0.645255
vt 0.911687 0.645255
vt 0.911687 0.572003
vt 0.972270 0.572003
vt 0.968119 0.692804
vt 0.915838 0.692804
vt 0.899172 0.663500
vt 0.984784 0.663500
vt 0.748857 0.811842
vt 0.746810 0.736259
vt 0.779080 0.766317
vt 0.781065 0.837931
vt 0.915317 0.846566
vt 0.915317 0.750681
vt 0.947417 0.750681
vt 0.971328 0.771316
vt 0.971328 0.825931
vt 0.947417 0.846566
vt 0.486276 0.750102
vt 0.488323 0.825684
vt 0.460448 0.855139
vt 0.453584 0.783742
vt 0.923163 0.006444
vt 0.983224 0.013595
vt 0.972740 0.085149
vt 0.912679 0.077998
vt 0.923604 0.426921
vt 0.604915 0.000086
vt 0.628130 0.000000
vt 0.627509 0.006584
vt 0.599382 0.006367
vt 0.633362 0.451414
vt 0.814174 0.869580
vt 0.503704 0.384796
vt 0.506694 0.310869
vt 0.679042 0.017299
vt 0.634120 0.017652
vt 0.923497 0.150485
vt 0.923497 0.101145
vt 0.942769 0.101145
vt 0.942769 0.150485
vt 0.558666 0.437722
vt 0.581687 0.436424
vt 0.581408 0.443406
vt 0.553499 0.444640
vt 0.884383 0.750681
vt 0.823743 0.750681
vt 0.818867 0.744743
vt 0.889259 0.744743
vt 0.589481 0.017299
vt 0.955813 0.150485
vt 0.955813 0.101145
vt 0.975085 0.101145
vt 0.975085 0.150485
vt 0.808954 0.733823
vt 0.899172 0.733823
vt 0.922584 0.091251
vt 0.915025 0.098481
vt 0.623042 0.440945
vt 0.632100 0.439549
vt 0.979743 0.091251
vt 0.986721 0.086692
vt 1.000000 0.085149
vt 0.922584 0.160379
vt 0.915025 0.153148
vt 0.810665 0.744441
vt 0.979743 0.160379
vt 1.000000 0.166480
vt 0.986721 0.164937
vt 0.944609 0.160498
vt 0.957652 0.160498
vt 0.595037 0.442681
vt 0.957652 0.091131
vt 0.944609 0.091131
vt 0.618394 0.434549
vt 0.627536 0.433250
vt 0.920169 0.164937
vt 0.912679 0.157544
vt 0.902766 0.307360
vt 0.832374 0.307360
vt 0.595317 0.435700
vt 0.453852 0.433250
vt 0.453584 0.359991
vt 0.472262 0.341492
vt 0.473741 0.412715
vt 0.802717 0.782521
vt 0.808954 0.855139
vt 0.822192 0.359991
vt 0.822461 0.433250
vt 0.997908 0.000000
vt 0.997908 0.070961
vn -0.9104 0.2254 -0.3470
vn 0.8616 0.0000 -0.5075
vn -0.9104 0.2254 0.3470
vn 0.8616 0.0000 0.5075
vn -0.8616 0.0000 0.5075
vn -0.8616 0.0000 -0.5075
vn 0.9104 0.2254 -0.3470
vn 0.9104 0.2254 0.3470
vn 0.0000 -0.0386 0.9993
vn 1.0000 -0.0026 0.0000
vn 0.0000 -0.0386 -0.9993
vn -1.0000 -0.0026 0.0000
vn 0.0000 0.3127 0.9499
vn -0.6892 -0.7245 0.0086
vn 0.8216 0.5423 0.1755
vn -0.0000 -0.5862 0.8102
vn 0.0000 1.0000 0.0000
vn 0.8179 -0.2386 0.5236
vn 0.8179 -0.2386 -0.5235
vn 0.0000 -0.7020 0.7122
vn 0.0000 -0.9971 -0.0763
vn -0.9494 -0.3122 -0.0331
vn -0.8179 -0.2386 0.5236
vn 0.0000 -0.9970 0.0770
vn 0.0000 0.6991 0.7151
vn 0.0000 0.0000 -1.0000
vn 0.0000 -0.6991 -0.7151
vn 0.9492 -0.3128 0.0331
vn 0.0000 0.7020 -0.7122
vn 0.9494 -0.3122 -0.0331
vn 0.0000 0.0000 1.0000
vn -0.6892 -0.7245 -0.0086
vn 0.8216 0.5423 -0.1755
vn -0.8179 -0.2386 -0.5235
vn -0.8321 -0.5527 0.0463
vn -0.8322 -0.5526 -0.0461
vn 0.8895 -0.4164 -0.1884
vn 0.8321 -0.5527 0.0463
vn 0.8322 -0.5526 -0.0461
vn -0.8892 -0.4163 0.1898
vn -0.8216 0.5423 0.1755
vn 0.0000 -1.0000 0.0000
vn 0.6892 -0.7245 0.0086
vn 0.0000 -0.5862 -0.8102
vn -0.8216 0.5423 -0.1755
vn 0.0000 0.3127 -0.9499
vn 0.2564 -0.8967 -0.3608
vn 0.4491 -0.6153 -0.6479
vn 0.2564 -0.8967 0.3608
vn 0.4491 -0.6153 0.6479
vn -0.2564 -0.8967 -0.3608
vn -0.4491 -0.6153 -0.6479
vn -0.2564 -0.8967 0.3608
vn -0.4491 -0.6153 0.6479
vn -0.9618 -0.2737 -0.0000
vn -0.3323 -0.9432 0.0000
vn 0.9618 -0.2737 0.0000
vn 0.3323 -0.9432 0.0000
vn -0.6892 -0.7246 0.0000
vn -0.3364 -0.9417 0.0036
vn -0.3708 -0.7648 0.5269
vn -0.9708 -0.2384 0.0280
vn 0.3708 -0.7648 -0.5269
vn 0.0000 -0.8906 -0.4549
vn -0.3708 -0.7648 -0.5269
vn 0.0000 -0.1536 -0.9881
vn -0.0000 -0.8906 0.4549
vn 0.3708 -0.7648 0.5269
vn 0.0000 -0.1536 0.9881
vn 0.6892 -0.7246 0.0000
vn 0.3364 -0.9417 -0.0036
vn 0.9708 -0.2384 -0.0280
vn -0.3364 -0.9417 -0.0036
vn -0.9708 -0.2384 -0.0280
vn 0.3364 -0.9417 0.0036
vn 0.9708 -0.2384 0.0280
vn 0.6892 -0.7245 -0.0086
vn -0.6318 -0.0456 -0.7738
vn 0.6318 -0.0456 -0.7738
vn -0.6317 -0.0454 0.7739
vn 0.6317 -0.0454 0.7739
vn -0.9492 -0.3128 0.0331
vn -0.8895 -0.4164 -0.1884
vn 0.8892 -0.4163 0.1898
usemtl steel
s off
f 7/1/1 6/2/1 25/3/1
f 6/4/2 24/5/2 29/6/2 13/7/2
f 7/1/3 25/3/3 5/8/3
f 24/5/4 5/9/4 12/10/4 29/6/4
f 12/11/5 5/8/5 25/3/5 28/12/5
f 25/3/6 6/2/6 13/13/6 28/12/6
f 7/14/7 24/5/7 6/4/7
f 7/14/8 5/9/8 24/5/8
usemtl wood
f 4/15/9 2/16/9 10/17/9 8/18/9
f 2/19/10 22/20/10 1/21/10 11/22/10 27/23/10 10/24/10
f 1/25/11 3/26/11 9/27/11 11/28/11
f 3/29/12 23/30/12 4/31/12 8/32/12 26/33/12 9/34/12
usemtl brass
f 40/35/13 2/16/13 4/15/13 52/36/13
f 60/37/14 50/38/14 53/39/14 55/40/14
f 63/41/15 22/20/15 2/19/15 40/42/15
f 49/43/16 38/44/16 41/45/16 51/46/16
f 12/47/17 14/48/17 17/49/17
f 10/24/18 27/23/18 29/50/18
f 13/51/17 18/52/17 28/53/17
f 27/23/19 11/22/19 29/50/19
f 15/54/20 16/55/20 80/56/20 81/57/20 78/58/20 79/59/20
f 28/60/17 14/48/17 12/47/17
f 8/61/21 10/62/21 16/55/21 15/54/21
f 14/63/22 15/64/22 79/65/22 76/66/22
f 13/51/17 21/67/17 18/52/17
f 26/33/23 8/32/23 28/68/23
f 11/69/24 9/70/24 19/71/24 20/72/24
f 18/73/25 21/74/25 74/75/25 75/76/25 68/77/25 69/78/25
f 72/79/26 71/80/26 68/81/26 75/82/26
f 20/83/27 19/84/27 70/85/27 71/80/27 72/79/27 73/86/27
f 21/87/28 20/88/28 73/89/28 74/90/28
f 17/91/29 14/92/29 76/93/29 77/94/29 82/95/29 83/96/29
f 16/97/30 17/98/30 83/99/30 80/100/30
f 78/101/31 81/102/31 82/103/31 77/104/31
f 12/47/17 17/49/17 29/105/17
f 43/106/32 57/107/32 54/108/32 45/109/32
f 35/110/33 1/21/33 22/20/33 63/41/33
f 29/111/17 21/67/17 13/51/17
f 9/34/34 26/33/34 28/68/34
f 28/68/35 18/112/35 9/34/35
f 28/68/36 8/32/36 14/63/36
f 16/97/37 10/24/37 17/98/37
f 29/50/38 11/22/38 21/87/38
f 29/50/39 17/98/39 10/24/39
f 18/112/40 19/113/40 9/34/40
f 52/114/41 4/31/41 23/30/41 56/115/41
f 42/116/42 31/117/42 66/118/42 58/119/42
f 37/120/43 64/121/43 61/122/43 39/123/43
f 32/124/44 44/125/44 47/126/44 34/127/44
f 56/115/45 23/30/45 3/29/45 46/128/45
f 59/129/42 65/130/42 36/131/42 48/132/42
f 46/133/46 3/26/46 1/25/46 35/134/46
f 30/135/47 31/117/47 32/136/47
f 33/137/48 34/138/48 35/110/48
f 36/131/49 37/139/49 38/44/49
f 39/140/50 40/141/50 41/45/50
f 42/116/51 43/142/51 44/143/51
f 45/144/52 46/133/52 47/126/52
f 48/132/53 49/43/53 50/145/53
f 51/46/54 52/146/54 53/147/54
f 54/108/55 55/40/55 56/115/55
f 57/148/56 58/119/56 59/129/56 60/149/56
f 61/122/57 62/150/57 63/41/57
f 64/151/58 65/130/58 66/118/58 67/152/58
f 54/108/59 57/107/59 60/37/59 55/40/59
f 59/129/60 48/132/60 50/145/60 60/149/60
f 49/43/61 51/46/61 53/147/61 50/145/61
f 52/114/62 56/115/62 55/40/62 53/39/62
f 33/137/63 30/153/63 32/154/63 34/138/63
f 31/117/64 42/116/64 44/143/64 32/136/64
f 43/142/65 45/155/65 47/156/65 44/143/65
f 46/133/66 35/134/66 34/127/66 47/126/66
f 48/132/67 36/131/67 38/44/67 49/43/67
f 37/139/68 39/140/68 41/45/68 38/44/68
f 40/35/69 52/36/69 51/157/69 41/158/69
f 61/122/70 64/121/70 67/159/70 62/150/70
f 66/118/71 31/117/71 30/135/71 67/152/71
f 35/110/72 63/41/72 62/150/72 33/137/72
f 42/116/73 58/119/73 57/148/73 43/142/73
f 56/115/74 46/128/74 45/109/74 54/108/74
f 36/131/75 65/130/75 64/151/75 37/139/75
f 63/41/76 40/42/76 39/123/76 61/122/76
f 65/130/42 59/129/42 58/119/42 66/118/42
f 67/159/77 30/153/77 33/137/77 62/150/77
f 68/160/78 71/161/78 70/162/78 69/163/78
f 72/164/79 75/165/79 74/90/79 73/89/79
f 76/66/80 79/65/80 78/166/80 77/167/80
f 80/168/81 83/169/81 82/103/81 81/102/81
f 19/113/82 18/112/82 69/163/82 70/162/82
f 14/63/83 8/32/83 15/64/83
f 20/88/84 21/87/84 11/22/84
l 23 26
l 22 27
