# Blender v2.90.1 OBJ File: 'lid.blend'
# www.blender.org
mtllib lid.mtl
o Cube
v 1.000000 0.033359 -0.207646
v 0.847384 0.033359 -0.576095
v 0.576095 0.033359 -0.847384
v 0.207646 0.033359 -1.000000
v 0.207646 -0.033359 -1.000000
v 0.576095 -0.033359 -0.847384
v 0.847384 -0.033359 -0.576095
v 1.000000 -0.033359 -0.207646
v 0.207646 0.033359 1.000000
v 0.576095 0.033359 0.847384
v 0.847384 0.033359 0.576095
v 1.000000 0.033359 0.207646
v 1.000000 -0.033359 0.207646
v 0.847384 -0.033359 0.576095
v 0.576095 -0.033359 0.847384
v 0.207646 -0.033359 1.000000
v -0.207646 0.033359 -1.000000
v -0.576095 0.033359 -0.847384
v -0.847384 0.033359 -0.576095
v -1.000000 0.033359 -0.207646
v -1.000000 -0.033359 -0.207646
v -0.847384 -0.033359 -0.576095
v -0.576095 -0.033359 -0.847384
v -0.207646 -0.033359 -1.000000
v -1.000000 0.033359 0.207646
v -0.847384 0.033359 0.576095
v -0.576095 0.033359 0.847384
v -0.207646 0.033359 1.000000
v -0.207646 -0.033359 1.000000
v -0.576095 -0.033359 0.847384
v -0.847384 -0.033359 0.576095
v -1.000000 -0.033359 0.207646
vt 0.685545 0.500000
vt 0.685545 0.000000
vt 0.735881 0.000000
vt 0.735881 0.500000
vt 0.371090 0.500000
vt 0.371089 0.000000
vt 0.421426 0.000000
vt 0.421426 0.500000
vt 0.685545 0.000000
vt 0.685545 0.500000
vt 0.635208 0.500000
vt 0.635208 0.000000
vt 0.753908 1.000000
vt 0.753908 0.500000
vt 0.830964 0.500000
vt 0.830964 1.000000
vt 0.147017 0.500000
vt 0.078653 0.461846
vt 0.028317 0.394024
vt 0.000000 0.301912
vt 0.000000 0.198088
vt 0.028317 0.105976
vt 0.078653 0.038154
vt 0.147017 0.000000
vt 0.224072 0.000000
vt 0.292436 0.038154
vt 0.342772 0.105976
vt 0.371089 0.198088
vt 0.371089 0.301911
vt 0.342772 0.394023
vt 0.292436 0.461846
vt 0.224072 0.500000
vt 0.881300 0.000000
vt 0.881300 0.500000
vt 0.804245 0.500000
vt 0.804245 0.000000
vt 0.540126 1.000000
vt 0.540126 0.500000
vt 0.617181 0.500000
vt 0.617181 1.000000
vt 0.489789 0.500000
vt 0.489789 0.000000
vt 0.566845 0.000000
vt 0.566845 0.500000
vt 0.147017 1.000000
vt 0.078653 0.961846
vt 0.028317 0.894023
vt 0.000000 0.801911
vt 0.000000 0.698088
vt 0.028317 0.605976
vt 0.078653 0.538154
vt 0.147017 0.500000
vt 0.224072 0.500000
vt 0.292436 0.538154
vt 0.342772 0.605976
vt 0.371089 0.698088
vt 0.371089 0.801911
vt 0.342772 0.894023
vt 0.292436 0.961846
vt 0.224072 1.000000
vt 0.949664 0.000000
vt 0.949664 0.500000
vt 0.899327 0.500000
vt 0.899327 1.000000
vt 0.685545 0.500000
vt 0.685545 1.000000
vt 0.471762 1.000000
vt 0.471762 0.500000
vt 0.685545 1.000000
vt 0.685545 0.500000
vt 1.000000 0.000000
vt 1.000000 0.500000
vn 0.7071 0.0000 0.7071
vn -0.7071 0.0000 0.7071
vn -0.7071 0.0000 -0.7071
vn 0.0000 0.0000 -1.0000
vn 0.0000 1.0000 -0.0000
vn 1.0000 0.0000 0.0000
vn 0.0000 0.0000 1.0000
vn -1.0000 0.0000 0.0000
vn 0.0000 -1.0000 -0.0000
vn 0.9239 0.0000 -0.3827
vn 0.3827 0.0000 -0.9239
vn -0.3827 0.0000 0.9239
vn -0.9239 0.0000 0.3827
vn 0.3827 0.0000 0.9239
vn 0.9239 0.0000 0.3827
vn -0.3827 0.0000 -0.9239
vn -0.9239 0.0000 -0.3827
vn 0.7071 0.0000 -0.7071
usemtl Material
s off
f 10/1/1 15/2/1 14/3/1 11/4/1
f 30/5/2 27/6/2 26/7/2 31/8/2
f 18/9/3 23/10/3 22/11/3 19/12/3
f 24/13/4 17/14/4 4/15/4 5/16/4
f 1/17/5 2/18/5 3/19/5 4/20/5 17/21/5 18/22/5 19/23/5 20/24/5 25/25/5 26/26/5 27/27/5 28/28/5 9/29/5 10/30/5 11/31/5 12/32/5
f 8/33/6 1/34/6 12/35/6 13/36/6
f 16/37/7 9/38/7 28/39/7 29/40/7
f 32/41/8 25/42/8 20/43/8 21/44/8
f 21/45/9 22/46/9 23/47/9 24/48/9 5/49/9 6/50/9 7/51/9 8/52/9 13/53/9 14/54/9 15/55/9 16/56/9 29/57/9 30/58/9 31/59/9 32/60/9
f 1/34/10 8/33/10 7/61/10 2/62/10
f 5/16/11 4/15/11 3/63/11 6/64/11
f 29/40/12 28/39/12 27/65/12 30/66/12
f 25/42/13 32/41/13 31/8/13 26/7/13
f 9/38/14 16/37/14 15/67/14 10/68/14
f 13/36/15 12/35/15 11/4/15 14/3/15
f 17/14/16 24/13/16 23/69/16 18/70/16
f 21/44/17 20/43/17 19/12/17 22/11/17
f 2/62/18 7/61/18 6/71/18 3/72/18
