# Blender v2.90.1 OBJ File: ''
# www.blender.org
mtllib devilSkull.mtl
o teeth
v -0.062500 0.201093 0.062500
v -0.125000 0.201093 0.062500
v -0.125000 0.250000 0.062500
v -0.062500 0.250000 0.062500
v 0.125000 0.201093 0.125000
v 0.125000 0.201093 0.062500
v 0.125000 0.250000 0.062500
v 0.125000 0.250000 0.125000
v -0.125000 0.201093 0.125000
v -0.125000 0.250000 0.125000
v 0.062500 0.250000 0.125000
v 0.062500 0.250000 0.062500
v 0.125000 0.087890 0.125000
v 0.125000 0.087890 0.062500
v 0.125000 0.125000 0.062500
v 0.125000 0.125000 0.125000
v -0.062500 0.084543 -0.062500
v -0.102957 0.084543 -0.062500
v -0.102957 0.250000 -0.115162
v -0.062500 0.250000 -0.115162
v -0.099610 0.062500 -0.040457
v -0.062500 0.062500 -0.040457
v -0.062500 0.062500 0.000000
v -0.099610 0.062500 0.000000
v -0.125000 0.250000 0.000000
v -0.062500 0.250000 0.000000
v -0.125000 0.250000 -0.040457
v -0.110341 0.077159 -0.055116
v -0.125000 0.087890 0.000000
v -0.099610 0.062500 0.062500
v 0.099610 0.062500 0.062500
v 0.099610 0.062500 0.125000
v -0.099610 0.062500 0.125000
v -0.125000 0.087890 0.062500
v -0.125000 0.125000 0.062500
v -0.062500 0.125000 0.062500
v 0.000000 0.125000 0.062500
v 0.062500 0.125000 0.062500
v -0.099610 0.062500 0.000000
v -0.062500 0.062500 0.000000
v -0.062500 0.062500 0.062500
v -0.099610 0.062500 0.062500
v 0.075927 0.125000 0.111573
v 0.111573 0.125000 0.111573
v 0.111573 0.125000 0.075927
v 0.075927 0.125000 0.075927
v -0.125000 0.087890 0.125000
v -0.125000 0.125000 0.125000
v -0.125000 0.087890 0.000000
v -0.125000 0.087890 0.062500
v -0.125000 0.125000 0.062500
v -0.125000 0.125000 0.000000
v -0.062500 0.125000 0.000000
v -0.062500 0.125000 0.062500
v 0.125000 0.087890 0.062500
v 0.125000 0.087890 0.000000
v 0.125000 0.125000 0.000000
v 0.125000 0.125000 0.062500
v 0.062500 0.062500 0.000000
v 0.099610 0.062500 0.000000
v 0.099610 0.062500 0.062500
v 0.062500 0.062500 0.062500
v 0.062500 0.125000 0.000000
v 0.062500 0.062500 0.000000
v 0.099610 0.062500 0.000000
v 0.125000 0.087890 0.000000
v 0.125000 0.250000 0.000000
v 0.062500 0.250000 0.000000
v 0.062500 0.125000 0.062500
v 0.125000 0.087890 -0.040457
v 0.125000 0.250000 -0.040457
v 0.102957 0.084543 -0.062500
v 0.062500 0.084543 -0.062500
v 0.062500 0.250000 -0.115162
v 0.102957 0.250000 -0.115162
v 0.062500 0.062500 -0.040457
v 0.099610 0.062500 -0.040457
v -0.161895 0.500000 0.099395
v 0.161895 0.500000 0.099395
v 0.161895 0.500000 -0.161895
v -0.161895 0.500000 -0.161895
v 0.187500 0.335568 0.007468
v 0.187500 0.414432 0.007468
v 0.187500 0.452764 0.082601
v 0.187500 0.273368 0.092903
v 0.187500 0.273368 0.092903
v 0.164132 0.250000 0.125000
v -0.164132 0.250000 0.125000
v -0.187500 0.414432 0.007468
v -0.187500 0.335568 0.007468
v -0.187500 0.273368 0.092903
v -0.187500 0.273368 0.092903
v -0.187500 0.452764 0.082601
v -0.187500 0.414432 -0.069968
v -0.187500 0.474395 0.082601
v -0.187500 0.474395 -0.131642
v -0.187500 0.445898 -0.131642
v -0.131643 0.474395 -0.187500
v 0.131643 0.474395 -0.187500
v -0.161924 0.499971 -0.161924
v -0.163021 0.498874 0.100521
v 0.187500 0.288148 -0.131642
v 0.164132 0.250000 0.125000
v 0.187500 0.414432 -0.069968
v 0.187500 0.335568 -0.069968
v 0.187500 0.445898 -0.131642
v 0.161924 0.499971 -0.161924
v -0.187500 0.335568 -0.069968
v -0.187500 0.288148 -0.131642
v -0.164132 0.250000 0.125000
v 0.187500 0.474395 -0.131642
v 0.187500 0.474395 0.082601
v 0.145101 0.474395 0.125000
v 0.163021 0.498874 0.100521
v -0.145101 0.474395 0.125000
v -0.125000 0.087890 -0.040457
v 0.110341 0.077159 -0.055116
v 0.000000 0.201093 0.062500
v 0.000000 0.201093 0.125000
v -0.062500 0.201093 0.125000
v -0.062500 0.250000 0.125000
v 0.000000 0.250000 0.125000
v 0.000000 0.250000 0.062500
v 0.062500 0.201093 0.062500
v 0.062500 0.201093 0.125000
v -0.062500 0.125000 0.125000
v 0.000000 0.125000 0.125000
v -0.111573 0.125000 0.111573
v -0.075927 0.125000 0.111573
v -0.075927 0.125000 0.075927
v -0.111573 0.125000 0.075927
v 0.062500 0.125000 0.125000
v -0.099523 0.144002 0.093750
v 0.099523 0.144002 0.093750
v 0.442637 0.369105 -0.036430
v 0.453201 0.527364 -0.031250
v -0.444388 0.369105 -0.036430
v -0.444388 0.369105 -0.026070
v 0.442637 0.369105 -0.026070
v -0.454436 0.527269 -0.031250
v 0.472363 0.436738 -0.047497
v 0.463286 0.396279 -0.051479
v 0.455246 0.414432 -0.055789
v -0.474148 0.436710 -0.015001
v -0.465161 0.396311 -0.011003
v -0.456632 0.414432 -0.006696
v -0.465161 0.396311 -0.051497
v -0.474148 0.436710 -0.047499
v 0.463286 0.396279 -0.011021
v 0.472363 0.436738 -0.015003
v 0.455246 0.414432 -0.006711
v 0.418934 0.414432 -0.041355
v 0.440829 0.433627 -0.037650
v -0.418765 0.414432 -0.021144
v -0.440896 0.433594 -0.024848
v -0.440896 0.433594 -0.037651
v -0.418765 0.414432 -0.041356
v -0.456632 0.414432 -0.055803
v 0.440829 0.433627 -0.024850
v 0.418934 0.414432 -0.021145
v 0.135830 0.299733 -0.184491
v 0.171329 0.251330 -0.136321
v -0.135830 0.299733 -0.184491
v -0.171329 0.251330 -0.136321
vt 0.043211 0.774643
vt 0.043211 0.829813
vt 0.000000 0.829814
vt 0.000000 0.774644
vt 0.191482 0.897025
vt 0.246904 0.897109
vt 0.246904 0.940210
vt 0.191482 0.940127
vt 0.110883 0.881450
vt 0.166305 0.881366
vt 0.166305 0.924467
vt 0.110883 0.924551
vt 0.221766 0.386191
vt 0.221766 0.331020
vt 0.277208 0.331020
vt 0.277208 0.386191
vt 0.415542 0.883896
vt 0.470964 0.883896
vt 0.471013 0.916602
vt 0.415591 0.916602
vt 1.000000 0.149610
vt 0.964112 0.149610
vt 0.964112 0.000001
vt 1.000000 0.000000
vt 0.753345 0.919233
vt 0.786264 0.919233
vt 0.786264 0.954945
vt 0.753345 0.954945
vt 0.000000 0.829814
vt 0.055442 0.829814
vt 0.055442 0.931470
vt 0.019554 0.931470
vt 0.000000 0.865526
vt 0.999999 0.170722
vt 0.967080 0.170722
vt 0.957562 0.156683
vt 0.981411 0.727053
vt 0.958888 0.749434
vt 0.925969 0.749434
vt 0.925969 0.584156
vt 0.981411 0.584156
vt 0.332649 0.800064
vt 0.332649 0.975919
vt 0.277208 0.975919
vt 0.277208 0.800064
vt 0.948249 0.523152
vt 0.925816 0.500740
vt 0.925816 0.324884
vt 0.948249 0.302472
vt 0.981038 0.302471
vt 0.981038 0.357642
vt 0.981038 0.412812
vt 0.981038 0.467982
vt 0.981038 0.523152
vt 0.879137 0.523038
vt 0.912056 0.523038
vt 0.912056 0.578208
vt 0.879137 0.578208
vt 0.914031 0.043318
vt 0.914031 0.011852
vt 0.945651 0.011852
vt 0.945651 0.043318
vt 0.888851 0.257922
vt 0.833429 0.257922
vt 0.833479 0.225217
vt 0.888901 0.225217
vt 0.276643 0.584405
vt 0.221221 0.584405
vt 0.221271 0.551701
vt 0.276693 0.551701
vt 0.753345 0.919233
vt 0.753345 0.864082
vt 0.808697 0.863999
vt 0.808697 0.919149
vt 0.478336 0.885063
vt 0.533758 0.885063
vt 0.533808 0.917768
vt 0.478386 0.917768
vt 0.856200 0.916122
vt 0.878691 0.938534
vt 0.878691 0.971292
vt 0.823327 0.971292
vt 0.823327 0.916121
vt 0.753345 0.863999
vt 0.753345 0.919169
vt 0.697903 0.919169
vt 0.697903 0.863999
vt 0.415542 0.971772
vt 0.415542 0.939014
vt 0.437975 0.916602
vt 0.470764 0.916602
vt 0.470763 0.971772
vt 0.912056 0.523038
vt 0.879137 0.523038
vt 0.879137 0.467868
vt 0.912056 0.467868
vt 0.511890 0.917769
vt 0.534323 0.940181
vt 0.534323 0.972939
vt 0.479101 0.972939
vt 0.479102 0.917769
vt 0.603910 0.818156
vt 0.636829 0.818156
vt 0.659351 0.840536
vt 0.659351 0.983434
vt 0.603910 0.983434
vt 0.889416 0.280368
vt 0.889416 0.225217
vt 0.944768 0.225301
vt 0.944768 0.280452
vt 0.534323 0.916587
vt 0.534323 0.861417
vt 0.589765 0.861417
vt 0.589765 0.916587
vt 0.589687 0.916587
vt 0.589687 0.949345
vt 0.567196 0.971757
vt 0.534323 0.971757
vt 0.925969 0.727078
vt 0.890094 0.727024
vt 0.890094 0.584156
vt 0.925969 0.584210
vt 0.339199 0.821177
vt 0.375087 0.821176
vt 0.375088 0.970786
vt 0.339200 0.970786
vt 0.911610 0.951834
vt 0.878691 0.951834
vt 0.878691 0.916121
vt 0.911610 0.916121
vt 0.055442 0.829814
vt 0.110883 0.829814
vt 0.110883 0.865526
vt 0.091330 0.931470
vt 0.055442 0.931470
vt 0.870394 0.321982
vt 0.889941 0.302526
vt 0.925816 0.302471
vt 0.925816 0.467713
vt 0.823696 0.467867
vt 0.022713 0.308418
vt 0.022713 0.022602
vt 0.254495 0.022602
vt 0.254495 0.308418
vt 0.143308 0.434804
vt 0.073465 0.435371
vt 0.039075 0.369350
vt 0.197889 0.358970
vt 0.197889 0.358970
vt 0.309369 0.302471
vt 0.323777 0.348085
vt 0.277208 0.316746
vt 0.323777 0.587885
vt 0.309369 0.633492
vt 0.277208 0.619218
vt 0.551792 0.476234
vt 0.621634 0.476803
vt 0.676213 0.552638
vt 0.676213 0.552638
vt 0.517402 0.542254
vt 0.552249 0.407906
vt 0.498246 0.542098
vt 0.499510 0.353053
vt 0.524747 0.353258
vt 0.478336 0.351780
vt 0.478336 0.584188
vt 0.254520 0.308444
vt 0.227658 0.331020
vt 0.037611 0.331020
vt 0.021715 0.309412
vt 0.000000 0.000000
vt 0.000000 0.000000
vt 0.000000 0.000000
vt 0.000000 0.000000
vt 0.073922 0.503700
vt 0.143765 0.503132
vt 0.186124 0.557212
vt 0.046419 0.558346
vt 0.254520 0.022576
vt 0.277208 0.049306
vt 0.277208 0.281714
vt 0.622091 0.408474
vt 0.664450 0.354395
vt 0.000000 0.000000
vt 0.000000 0.000000
vt 0.000000 0.000000
vt 0.000000 0.000000
vt 0.021182 0.558551
vt 0.019918 0.369506
vt 0.474231 0.676432
vt 0.474231 0.719369
vt 0.457530 0.710022
vt 0.448541 0.680202
vt 0.474232 0.633492
vt 0.474232 0.676432
vt 0.448541 0.672659
vt 0.457531 0.642837
vt 0.697903 0.580587
vt 0.500145 0.578529
vt 0.021807 0.333075
vt 0.219574 0.331020
vt 0.000000 0.293594
vt 0.000000 0.037427
vt 0.021714 0.021608
vt 0.024329 0.609133
vt 0.000000 0.586048
vt 0.502672 0.302471
vt 0.478336 0.325556
vt 0.219574 0.561450
vt 0.219574 0.331020
vt 0.697903 0.350157
vt 0.697903 0.580587
vt 0.178782 0.605125
vt 0.657122 0.306482
vt 0.037611 0.000000
vt 0.227658 0.000000
vt 0.330629 0.647024
vt 0.343975 0.657198
vt 0.343975 0.800064
vt 0.277208 0.799056
vt 0.323906 0.653170
vt 0.332649 0.814105
vt 0.342169 0.800064
vt 0.375088 0.800064
vt 0.870026 0.731046
vt 0.823327 0.585158
vt 0.876748 0.737194
vt 0.925447 0.916121
vt 0.889572 0.916067
vt 0.870026 0.896611
vt 0.823327 0.750723
vt 0.925447 0.750877
vt 0.343373 0.633546
vt 0.889493 0.750669
vt 0.416107 0.860250
vt 0.471529 0.860250
vt 0.889416 0.281575
vt 0.833994 0.281575
vt 0.277208 0.608058
vt 0.221786 0.608058
vt 0.478901 0.861417
vt 0.534323 0.861417
vt 0.379850 0.657144
vt 0.379249 0.633492
vt 0.925368 0.750723
vt 0.379850 0.800009
vt 0.879137 0.467868
vt 0.879137 0.523038
vt 0.823696 0.523038
vt 0.823696 0.467868
vt 0.221766 0.496531
vt 0.221766 0.441361
vt 0.277208 0.441361
vt 0.277208 0.496531
vt 0.043211 0.664303
vt 0.043211 0.719473
vt 0.000000 0.719474
vt 0.000000 0.664304
vt 0.221766 0.551701
vt 0.277208 0.551701
vt 0.043211 0.609133
vt 0.000000 0.609133
vt 0.879137 0.578208
vt 0.823696 0.578208
vt 0.902120 0.165510
vt 0.902120 0.110340
vt 0.957562 0.110340
vt 0.957562 0.165510
vt 0.914031 0.208828
vt 0.914031 0.177363
vt 0.945651 0.177363
vt 0.945651 0.208828
vt 0.902120 0.055170
vt 0.957562 0.055170
vt 0.096121 0.807326
vt 0.957562 0.000000
vt 0.902120 0.000000
vt 0.902120 0.220680
vt 0.957562 0.220680
vt 0.139444 0.609133
vt 0.191482 0.631620
vt 0.139444 0.664303
vt 0.137991 0.829814
vt 0.975122 0.523152
vt 0.975122 0.581800
vt 0.925816 0.548337
vt 0.096121 0.631624
vt 0.219797 0.845478
vt 0.753345 0.919169
vt 0.753345 0.978551
vt 0.704656 0.945516
vt 0.139444 0.774644
vt 0.191482 0.807323
vt 0.139444 0.829814
vt 0.509018 0.000000
vt 0.509018 0.302471
vt 0.277208 0.296118
vt 0.277208 0.006353
vt 0.096121 0.829814
vt 0.096121 0.774643
vt 0.958320 0.750724
vt 0.980811 0.773136
vt 0.980811 0.948992
vt 0.958320 0.971404
vt 0.925447 0.971404
vt 0.925447 0.916234
vt 0.925447 0.861064
vt 0.925447 0.805894
vt 0.925447 0.750723
vt 0.707792 0.000000
vt 0.707792 0.000000
vt 0.707792 0.289766
vt 0.707792 0.289766
vt 0.509018 0.272966
vt 0.509018 0.016798
vt 0.139444 0.719474
vt 0.096121 0.719473
vt 0.096121 0.664303
vt 0.096121 0.609133
vt 0.386875 0.923003
vt 0.415542 0.920102
vt 0.409802 1.000000
vt 0.391035 0.861175
vt 0.400174 0.860250
vt 0.415542 0.883805
vt 0.379850 0.887417
vt 0.761806 0.041998
vt 0.742184 0.034966
vt 0.753929 0.013495
vt 0.833429 0.000000
vt 0.679677 0.957791
vt 0.670538 0.956862
vt 0.659351 0.930573
vt 0.695073 0.934205
vt 0.204060 0.609133
vt 0.216864 0.641187
vt 0.191482 0.845478
vt 0.448541 0.860250
vt 0.379850 0.860250
vt 0.409615 0.633492
vt 0.418805 0.633492
vt 0.759159 0.302471
vt 0.823696 0.329088
vt 0.731677 0.548302
vt 0.713765 0.549064
vt 0.697903 0.522675
vt 0.902120 0.225217
vt 0.833429 0.225217
vt 0.863165 0.000000
vt 0.872355 0.000000
vt 0.629290 0.614013
vt 0.647220 0.614013
vt 0.672601 0.818156
vt 0.603910 0.818156
vt 0.531763 0.622337
vt 0.511933 0.616772
vt 0.523973 0.595410
vt 0.603910 0.580587
vt 0.234791 0.641187
vt 0.247595 0.609133
vt 0.260173 0.845478
vt 0.660036 0.580587
vt 0.616475 0.580587
vt 0.277208 0.689937
vt 0.265855 0.689937
vt 0.271086 0.608058
vt 0.758864 0.584156
vt 0.823327 0.610480
vt 0.732120 0.828706
vt 0.714260 0.829083
vt 0.697903 0.802700
vt 0.695073 0.897963
vt 0.666404 0.895048
vt 0.689375 0.818156
vt 0.833429 0.254501
vt 0.768916 0.280702
vt 0.707792 0.060605
vt 0.724186 0.034143
vt 0.683929 0.662741
vt 0.672601 0.662022
vt 0.683929 0.580587
vt 0.603910 0.834676
vt 0.539425 0.861417
vt 0.478336 0.642764
vt 0.494160 0.616454
vt 0.743983 0.849882
vt 0.743599 0.569956
vt 0.751915 0.541613
vt 0.823696 0.584156
vt 0.743296 0.798621
vt 0.751341 0.822797
vt 0.743911 0.517165
vt 0.753820 0.066342
vt 0.523700 0.646619
vt 0.632577 0.594478
vt 0.643934 0.594478
vt 0.220150 0.621860
vt 0.231505 0.621860
vt 0.823327 0.863999
vn 0.0000 0.0000 -1.0000
vn 1.0000 0.0000 0.0000
vn -1.0000 0.0000 0.0000
vn 0.0000 1.0000 0.0000
vn 0.0000 -0.3033 -0.9529
vn 0.0000 -1.0000 -0.0000
vn -0.0000 -0.7071 -0.7071
vn -0.4215 -0.8049 -0.4176
vn -0.6251 -0.5692 -0.5341
vn -0.5772 -0.4547 -0.6783
vn 0.0000 -0.0000 1.0000
vn 0.9326 0.0376 0.3589
vn 0.7278 0.0257 0.6853
vn 0.8966 -0.2858 0.3383
vn -0.9069 -0.2164 -0.3616
vn -0.4248 -0.4089 -0.8077
vn -0.6411 -0.5688 -0.5152
vn 0.4248 -0.4089 -0.8077
vn 0.9069 -0.2164 -0.3616
vn 0.6411 -0.5688 -0.5152
vn -0.8966 -0.2858 0.3383
vn -0.7278 0.0257 0.6853
vn -0.9326 0.0376 0.3589
vn -0.8942 0.3252 0.3076
vn -0.9118 0.2863 -0.2943
vn -0.9246 -0.0121 -0.3808
vn 0.0000 -0.0172 -0.9999
vn -0.5937 0.5432 -0.5937
vn -0.5495 0.6293 0.5495
vn -0.4082 0.8165 0.4082
vn -0.4082 0.8165 -0.4082
vn 0.3709 -0.2449 0.8958
vn 0.3351 0.0234 0.9419
vn 0.9246 -0.0121 -0.3808
vn 0.4082 0.8165 -0.4082
vn 0.5937 0.5432 -0.5937
vn 0.3980 0.4108 -0.8203
vn -0.3980 0.4108 -0.8203
vn -0.3709 -0.2449 0.8958
vn -0.3351 0.0234 0.9419
vn 0.9118 0.2863 -0.2943
vn 0.8942 0.3252 0.3076
vn 0.4299 0.4334 0.7921
vn 0.5495 0.6293 0.5495
vn -0.4299 0.4334 0.7921
vn 0.4082 0.8165 0.4082
vn -0.8666 -0.4336 -0.2468
vn -0.9067 -0.0653 -0.4167
vn 0.6251 -0.5692 -0.5341
vn 0.4215 -0.8049 -0.4176
vn 0.5772 -0.4547 -0.6783
vn 0.9067 -0.0653 -0.4167
vn 0.8666 -0.4336 -0.2468
vn 0.7071 -0.7071 -0.0000
vn -0.7071 -0.7071 -0.0000
vn 0.3476 -0.8806 -0.3221
vn 0.3476 -0.8806 0.3221
vn -0.3476 -0.8806 -0.3221
vn -0.3476 -0.8806 0.3222
vn -0.6068 -0.3660 -0.7056
vn -0.6068 -0.3659 0.7056
vn 0.6067 -0.3660 -0.7056
vn 0.6067 -0.3660 0.7056
vn 0.0000 -1.0000 -0.0051
vn 0.6948 0.1030 0.7118
vn 0.6948 0.1030 -0.7118
vn -0.0061 0.9995 0.0304
vn 0.7962 -0.6050 0.0000
vn 0.6606 0.4792 -0.5779
vn -0.0756 0.1294 -0.9887
vn -0.6988 0.1055 -0.7075
vn 0.1105 0.9936 -0.0226
vn -0.7948 -0.6069 0.0000
vn 0.0791 0.1333 0.9879
vn -0.2033 0.9724 0.1146
vn 0.0737 0.6281 0.7747
vn -0.1432 -0.7654 -0.6275
vn -0.1292 -0.7537 0.6443
vn -0.1397 -0.6966 0.7037
vn -0.1229 -0.6771 -0.7256
vn -0.0727 0.6320 0.7716
vn -0.0756 0.1294 0.9887
vn -0.5733 -0.1982 0.7950
vn 0.1442 -0.7653 0.6273
vn 0.1301 -0.7537 -0.6443
vn 0.1407 -0.6969 -0.7032
vn 0.1240 -0.6775 0.7250
vn 0.2001 0.9731 -0.1139
vn 0.2001 0.9731 0.1139
vn -0.0732 0.6284 -0.7745
vn -0.6695 0.4725 0.5732
vn -0.2033 0.9724 -0.1146
vn 0.0791 0.1333 -0.9879
vn 0.0732 0.6318 -0.7716
vn 0.6606 0.4792 0.5779
vn 0.5736 -0.2008 -0.7942
vn -0.6988 0.1055 0.7075
vn -0.5733 -0.1982 -0.7950
vn -0.6695 0.4725 -0.5732
vn 0.5736 -0.2008 0.7942
usemtl head
s 1
f 1/1/1 2/2/1 3/3/1 4/4/1
f 5/5/2 6/6/2 7/7/2 8/8/2
f 2/9/3 9/10/3 10/11/3 3/12/3
f 11/13/4 8/14/4 7/15/4 12/16/4
f 13/17/2 14/18/2 15/19/2 16/20/2
f 17/21/5 18/22/5 19/23/5 20/24/5
f 21/25/6 22/26/6 23/27/6 24/28/6
f 25/29/4 26/30/4 20/31/4 19/32/4 27/33/4
f 22/34/7 21/35/8 28/36/9 18/22/10 17/21/7
f 29/37/11 24/38/11 23/39/11 26/40/11 25/41/11
f 30/42/6 31/43/6 32/44/6 33/45/6
f 14/46/1 31/47/1 30/48/1 34/49/1 35/50/1 36/51/1 37/52/1 38/53/1 15/54/1
f 39/55/6 40/56/6 41/57/6 42/58/6
f 43/59/4 44/60/4 45/61/4 46/62/4
f 34/63/3 47/64/3 48/65/3 35/66/3
f 49/67/3 50/68/3 51/69/3 52/70/3
f 41/71/2 40/72/2 53/73/2 54/74/2
f 55/75/2 56/76/2 57/77/2 58/78/2
f 50/79/11 42/80/11 41/81/11 54/82/11 51/83/11
f 51/84/4 54/85/4 53/86/4 52/87/4
f 40/88/1 39/89/1 49/90/1 52/91/1 53/92/1
f 59/93/6 60/94/6 61/95/6 62/96/6
f 56/97/1 60/98/1 59/99/1 63/100/1 57/101/1
f 64/102/11 65/103/11 66/104/11 67/105/11 68/106/11
f 59/107/3 62/108/3 69/109/3 63/110/3
f 69/111/4 58/112/4 57/113/4 63/114/4
f 62/115/11 61/116/11 55/117/11 58/118/11 69/111/11
f 66/119/2 70/120/2 71/121/2 67/122/2
f 72/123/5 73/124/5 74/125/5 75/126/5
f 76/127/6 77/128/6 65/129/6 64/130/6
f 68/131/4 67/132/4 71/133/4 75/134/4 74/135/4
f 73/136/3 76/137/3 64/138/3 68/139/3 74/140/3
f 78/141/4 79/142/4 80/143/4 81/144/4
f 82/145/2 83/146/2 84/147/12 85/148/13 86/149/14
f 109/150/15 163/151/16 164/152/17
f 161/153/18 102/154/19 162/155/20
f 89/156/3 90/157/3 91/158/21 92/159/22 93/160/23
f 94/161/3 89/156/3 93/160/23 95/162/24 96/163/25 97/164/26
f 161/153/27 163/151/27 98/165/27 99/166/27
f 100/167/28 96/168/25 95/169/24 101/170/29 78/141/30 81/144/31
f 87/171/32 86/172/14 85/173/13 103/174/33
f 104/175/2 105/176/2 102/177/19 106/178/34
f 81/144/31 80/143/35 107/179/36 99/180/37 98/181/38 100/167/28
f 108/182/3 94/161/3 97/164/26 109/183/15
f 91/184/21 88/185/39 110/186/40 92/187/22
f 105/176/2 82/145/2 86/149/14 102/177/19
f 90/157/3 108/182/3 109/183/15 91/158/21
f 83/146/2 104/175/2 106/178/34 111/188/41 112/189/42 84/147/12
f 113/190/43 84/191/12 112/192/42 114/193/44
f 93/194/23 115/195/45 101/196/29 95/197/24
f 93/160/23 92/159/22 110/198/40 115/199/45
f 85/148/13 84/147/12 113/200/43 103/201/33
f 79/142/46 78/141/30 101/170/29 115/202/45 113/203/43 114/204/44
f 106/178/34 99/205/37 107/206/36 111/188/41
f 98/207/38 97/164/26 96/163/25 100/208/28
f 162/209/20 102/177/19 86/149/14 87/210/32
f 164/211/17 88/212/39 91/158/21 109/183/15
f 106/178/34 102/177/19 161/213/18 99/205/37
f 109/183/15 97/164/26 98/207/38 163/214/16
f 80/143/35 79/142/46 114/204/44 112/215/42 111/216/41 107/179/36
f 28/217/9 116/218/47 27/219/48 19/220/48 18/221/10
f 117/222/49 77/223/50 76/224/7 73/124/7 72/123/51
f 72/225/51 75/226/52 71/121/52 70/120/53 117/227/49
f 23/228/2 22/229/2 17/230/2 20/231/2 26/232/2
f 21/233/8 116/218/47 28/217/9
f 70/120/53 77/234/50 117/227/49
f 14/18/54 13/17/54 32/235/54 31/236/54
f 30/237/55 33/238/55 47/64/55 34/63/55
f 39/239/55 42/240/55 50/68/55 49/67/55
f 56/76/54 55/75/54 61/241/54 60/242/54
f 29/243/55 116/218/47 21/233/8 24/244/55
f 65/245/54 77/234/50 70/120/53 66/119/54
f 116/218/3 29/243/3 25/246/3 27/219/3
f 1/247/56 118/248/6 119/249/6 120/250/57
f 121/251/4 122/252/4 123/253/4 4/254/4
f 124/255/1 118/256/1 123/257/1 12/258/1
f 10/259/4 121/251/4 4/254/4 3/260/4
f 118/256/1 1/1/1 4/4/1 123/257/1
f 6/261/1 124/255/1 12/258/1 7/262/1
f 118/248/6 124/263/58 125/264/59 119/249/6
f 122/252/4 11/13/4 12/16/4 123/253/4
f 126/265/4 127/266/4 37/267/4 36/268/4
f 128/269/4 129/270/4 130/271/4 131/272/4
f 127/266/4 132/273/4 38/274/4 37/267/4
f 1/1/56 133/275/6 2/2/60
f 46/62/4 45/61/4 15/276/4 38/274/4
f 45/61/4 44/60/4 16/277/4 15/276/4
f 129/270/4 128/269/4 48/278/4 126/265/4
f 128/269/4 131/272/4 35/279/4 48/278/4
f 131/272/4 130/271/4 36/268/4 35/279/4
f 130/271/4 129/270/4 126/265/4 36/268/4
f 44/60/4 43/59/4 132/273/4 16/277/4
f 43/59/4 46/62/4 38/274/4 132/273/4
f 9/280/61 133/281/6 120/282/57
f 2/9/60 133/283/6 9/10/61
f 124/284/58 134/285/6 125/286/59
f 6/261/62 134/287/6 124/255/58
f 5/5/63 134/288/6 6/6/62
f 120/289/57 133/290/6 1/291/56
f 125/292/59 134/293/6 5/294/63
f 162/155/20 164/152/17 163/151/16 161/153/18
f 164/295/64 162/296/64 87/297/64 88/298/64
usemtl face
f 125/292/11 5/294/11 8/299/11 11/300/11
f 47/301/11 33/302/11 32/303/11 13/304/11 16/305/11 132/306/11 127/307/11 126/308/11 48/309/11
f 110/310/11 88/311/11 87/312/11 103/313/11 113/314/11 115/315/11
f 120/282/11 119/316/11 122/317/11 121/318/11
f 9/280/11 120/282/11 121/318/11 10/319/11
f 119/316/11 125/292/11 11/300/11 122/317/11
usemtl horns.004
f 150/320/65 141/321/66 136/322/67
f 139/323/68 135/324/68 142/325/68 149/326/68
f 156/327/69 158/328/70 148/329/71 140/330/72
f 137/331/73 138/332/73 145/333/73 147/334/73
f 151/335/74 160/336/75 83/337/76
f 108/338/77 90/339/78 138/340/79 137/341/80
f 90/342/78 89/343/81 146/344/82 145/345/83 138/346/79
f 82/347/84 105/348/85 135/349/86 139/350/87
f 157/351/88 154/352/89 89/353/81 94/354/90
f 159/355/91 151/356/74 150/357/65 136/358/67
f 152/359/92 143/360/93 104/361/94
f 154/352/89 146/362/82 89/353/81
f 158/363/70 157/351/88 94/354/90
f 155/364/95 156/365/69 140/366/72
f 105/367/85 104/368/94 143/369/93 142/370/96 135/371/86
f 148/372/71 144/373/97 140/374/72
f 94/375/90 108/376/77 137/377/80 147/378/98 158/328/70
f 160/336/75 152/359/92 104/361/94 83/337/76
f 153/379/99 159/380/91 136/381/67
f 83/382/76 82/383/84 139/384/87 149/385/100 151/356/74
f 141/386/66 142/370/96 143/369/93
f 144/387/97 145/345/83 146/344/82
f 147/378/98 148/329/71 158/328/70
f 149/385/100 150/357/65 151/356/74
f 144/373/97 148/372/71 147/334/98 145/333/83
f 141/321/66 150/320/65 149/326/100 142/325/96
f 144/387/97 146/344/82 155/388/95 140/389/72
f 152/390/92 153/391/99 143/369/93
f 154/392/89 155/388/95 146/344/82
f 156/327/69 157/393/88 158/328/70
f 159/355/91 160/394/75 151/356/74
f 154/352/89 157/351/88 156/395/69 155/396/95
f 152/359/92 160/336/75 159/397/91 153/398/99
f 141/386/66 143/369/93 153/391/99 136/399/67
