# Made in Blockbench 4.1.1
mtllib skeltFULL.mtl

o chin
v 0.125 0.625 0.125
v 0.125 0.5625 0.125
v 0.125 0.625 0
v 0.125 0.5625 0
v -0.125 0.625 0
v -0.125 0.5625 0
v -0.125 0.625 0.125
v -0.125 0.5625 0.125
vt 0 0.75
vt 0 0.6875
vt 0.125 0.75
vt 0 0.6875
vt 0.125 0.6875
vt 0.125 0.75
vt 0.375 0.75
vt 0.375 0.6875
vt 0.5 0.75
vt 0.375 0.6875
vt 0.5 0.6875
vt 0.5 0.75
vt 0.375 0.75
vt 0.375 0.875
vt 0.125 0.75
vt 0.375 0.875
vt 0.125 0.875
vt 0.125 0.75
vt 0.625 0.875
vt 0.625 0.75
vt 0.375 0.875
vt 0.625 0.75
vt 0.375 0.75
vt 0.375 0.875
vt 0.5 0.75
vt 0.5 0.6875
vt 0.75 0.75
vt 0.5 0.6875
vt 0.75 0.6875
vt 0.75 0.75
vt 0.125 0.75
vt 0.125 0.6875
vt 0.375 0.75
vt 0.125 0.6875
vt 0.375 0.6875
vt 0.375 0.75
vn 1 0 0
vn 1 0 0
vn -1 0 0
vn -1 0 0
vn 0 1 0
vn 0 1 0
vn 0 -1 0
vn 0 -1 0
vn 0 0 1
vn 0 0 1
vn 0 0 -1
vn 0 0 -1
usemtl none
f 1/1/1 2/2/1 3/3/1
f 2/4/2 4/5/2 3/6/2
f 5/7/3 6/8/3 7/9/3
f 6/10/4 8/11/4 7/12/4
f 5/13/5 7/14/5 3/15/5
f 7/16/6 1/17/6 3/18/6
f 8/19/7 6/20/7 2/21/7
f 6/22/8 4/23/8 2/24/8
f 7/25/9 8/26/9 1/27/9
f 8/28/10 2/29/10 1/30/10
f 3/31/11 4/32/11 5/33/11
f 4/34/12 6/35/12 5/36/12
o rightMandible
v 0.125 0.75 0.0625
v 0.125 0.5625 0.0625
v 0.125 0.75 0
v 0.125 0.5625 0
v 0.0625 0.75 0
v 0.0625 0.5625 0
v 0.0625 0.75 0.0625
v 0.0625 0.5625 0.0625
vt 0 0.875
vt 0 0.6875
vt 0.0625 0.875
vt 0 0.6875
vt 0.0625 0.6875
vt 0.0625 0.875
vt 0.125 0.875
vt 0.125 0.6875
vt 0.1875 0.875
vt 0.125 0.6875
vt 0.1875 0.6875
vt 0.1875 0.875
vt 0.125 0.875
vt 0.125 0.9375
vt 0.0625 0.875
vt 0.125 0.9375
vt 0.0625 0.9375
vt 0.0625 0.875
vt 0.1875 0.9375
vt 0.1875 0.875
vt 0.125 0.9375
vt 0.1875 0.875
vt 0.125 0.875
vt 0.125 0.9375
vt 0.1875 0.875
vt 0.1875 0.6875
vt 0.25 0.875
vt 0.1875 0.6875
vt 0.25 0.6875
vt 0.25 0.875
vt 0.0625 0.875
vt 0.0625 0.6875
vt 0.125 0.875
vt 0.0625 0.6875
vt 0.125 0.6875
vt 0.125 0.875
vn 1 0 0
vn 1 0 0
vn -1 0 0
vn -1 0 0
vn 0 1 0
vn 0 1 0
vn 0 -1 0
vn 0 -1 0
vn 0 0 1
vn 0 0 1
vn 0 0 -1
vn 0 0 -1
usemtl none
f 9/37/13 10/38/13 11/39/13
f 10/40/14 12/41/14 11/42/14
f 13/43/15 14/44/15 15/45/15
f 14/46/16 16/47/16 15/48/16
f 13/49/17 15/50/17 11/51/17
f 15/52/18 9/53/18 11/54/18
f 16/55/19 14/56/19 10/57/19
f 14/58/20 12/59/20 10/60/20
f 15/61/21 16/62/21 9/63/21
f 16/64/22 10/65/22 9/66/22
f 11/67/23 12/68/23 13/69/23
f 12/70/24 14/71/24 13/72/24
o leftMandible
v -0.0625 0.75 0.0625
v -0.0625 0.5625 0.0625
v -0.0625 0.75 0
v -0.0625 0.5625 0
v -0.125 0.75 0
v -0.125 0.5625 0
v -0.125 0.75 0.0625
v -0.125 0.5625 0.0625
vt 0 0.875
vt 0 0.6875
vt 0.0625 0.875
vt 0 0.6875
vt 0.0625 0.6875
vt 0.0625 0.875
vt 0.125 0.875
vt 0.125 0.6875
vt 0.1875 0.875
vt 0.125 0.6875
vt 0.1875 0.6875
vt 0.1875 0.875
vt 0.125 0.875
vt 0.125 0.9375
vt 0.0625 0.875
vt 0.125 0.9375
vt 0.0625 0.9375
vt 0.0625 0.875
vt 0.1875 0.9375
vt 0.1875 0.875
vt 0.125 0.9375
vt 0.1875 0.875
vt 0.125 0.875
vt 0.125 0.9375
vt 0.1875 0.875
vt 0.1875 0.6875
vt 0.25 0.875
vt 0.1875 0.6875
vt 0.25 0.6875
vt 0.25 0.875
vt 0.0625 0.875
vt 0.0625 0.6875
vt 0.125 0.875
vt 0.0625 0.6875
vt 0.125 0.6875
vt 0.125 0.875
vn 1 0 0
vn 1 0 0
vn -1 0 0
vn -1 0 0
vn 0 1 0
vn 0 1 0
vn 0 -1 0
vn 0 -1 0
vn 0 0 1
vn 0 0 1
vn 0 0 -1
vn 0 0 -1
usemtl none
f 17/73/25 18/74/25 19/75/25
f 18/76/26 20/77/26 19/78/26
f 21/79/27 22/80/27 23/81/27
f 22/82/28 24/83/28 23/84/28
f 21/85/29 23/86/29 19/87/29
f 23/88/30 17/89/30 19/90/30
f 24/91/31 22/92/31 18/93/31
f 22/94/32 20/95/32 18/96/32
f 23/97/33 24/98/33 17/99/33
f 24/100/34 18/101/34 17/102/34
f 19/103/35 20/104/35 21/105/35
f 20/106/36 22/107/36 21/108/36
o face
v 0.1875 0.9375 0.1875
v 0.1875 0.75 0.1875
v 0.1875 0.9375 0
v 0.1875 0.75 0
v -0.1875 0.9375 0
v -0.1875 0.75 0
v -0.1875 0.9375 0.1875
v -0.1875 0.75 0.1875
vt 0.1875 0.625
vt 0.1875 0.4375
vt 0.5625 0.625
vt 0.1875 0.4375
vt 0.5625 0.4375
vt 0.5625 0.625
vt 0.1875 0.625
vt 0.1875 0.4375
vt 0.5625 0.625
vt 0.1875 0.4375
vt 0.5625 0.4375
vt 0.5625 0.625
vt 0.1875 0.625
vt 0.1875 0.4375
vt 0.5625 0.625
vt 0.1875 0.4375
vt 0.5625 0.4375
vt 0.5625 0.625
vt 0.1875 0.625
vt 0.1875 0.4375
vt 0.5625 0.625
vt 0.1875 0.4375
vt 0.5625 0.4375
vt 0.5625 0.625
vt 0.1875 0.625
vt 0.1875 0.4375
vt 0.5625 0.625
vt 0.1875 0.4375
vt 0.5625 0.4375
vt 0.5625 0.625
vt 0.1875 0.625
vt 0.1875 0.4375
vt 0.5625 0.625
vt 0.1875 0.4375
vt 0.5625 0.4375
vt 0.5625 0.625
vn 1 0 0
vn 1 0 0
vn -1 0 0
vn -1 0 0
vn 0 1 0
vn 0 1 0
vn 0 -1 0
vn 0 -1 0
vn 0 0 1
vn 0 0 1
vn 0 0 -1
vn 0 0 -1
usemtl none
f 25/109/37 26/110/37 27/111/37
f 26/112/38 28/113/38 27/114/38
f 29/115/39 30/116/39 31/117/39
f 30/118/40 32/119/40 31/120/40
f 29/121/41 31/122/41 27/123/41
f 31/124/42 25/125/42 27/126/42
f 32/127/43 30/128/43 26/129/43
f 30/130/44 28/131/44 26/132/44
f 31/133/45 32/134/45 25/135/45
f 32/136/46 26/137/46 25/138/46
f 27/139/47 28/140/47 29/141/47
f 28/142/48 30/143/48 29/144/48
o dome
v 0.1875 1.0625 0.125
v 0.1875 0.8125 0.125
v 0.1875 1.0625 -0.125
v 0.1875 0.8125 -0.125
v -0.1875 1.0625 -0.125
v -0.1875 0.8125 -0.125
v -0.1875 1.0625 0.125
v -0.1875 0.8125 0.125
vt 0 0.5
vt 0 0.25
vt 0.25 0.5
vt 0 0.25
vt 0.25 0.25
vt 0.25 0.5
vt 0.625 0.5
vt 0.625 0.25
vt 0.875 0.5
vt 0.625 0.25
vt 0.875 0.25
vt 0.875 0.5
vt 0.625 0.5
vt 0.625 0.75
vt 0.25 0.5
vt 0.625 0.75
vt 0.25 0.75
vt 0.25 0.5
vt 1 0.75
vt 1 0.5
vt 0.625 0.75
vt 1 0.5
vt 0.625 0.5
vt 0.625 0.75
vt 0.875 0.5
vt 0.875 0.25
vt 1.25 0.5
vt 0.875 0.25
vt 1.25 0.25
vt 1.25 0.5
vt 0.25 0.5
vt 0.25 0.25
vt 0.625 0.5
vt 0.25 0.25
vt 0.625 0.25
vt 0.625 0.5
vn 1 0 0
vn 1 0 0
vn -1 0 0
vn -1 0 0
vn 0 1 0
vn 0 1 0
vn 0 -1 0
vn 0 -1 0
vn 0 0 1
vn 0 0 1
vn 0 0 -1
vn 0 0 -1
usemtl none
f 33/145/49 34/146/49 35/147/49
f 34/148/50 36/149/50 35/150/50
f 37/151/51 38/152/51 39/153/51
f 38/154/52 40/155/52 39/156/52
f 37/157/53 39/158/53 35/159/53
f 39/160/54 33/161/54 35/162/54
f 40/163/55 38/164/55 34/165/55
f 38/166/56 36/167/56 34/168/56
f 39/169/57 40/170/57 33/171/57
f 40/172/58 34/173/58 33/174/58
f 35/175/59 36/176/59 37/177/59
f 36/178/60 38/179/60 37/180/60
o pelvis
v 0.1875 0 -0.0625
v -0.1875 0 -0.0625
v -0.1875 0.0625 -0.0625
v 0.1875 0.0625 -0.0625
v 0.1875 0 0.125
v 0.1875 0.0625 0.125
v -0.1875 0 0.125
v -0.1875 0.0625 0.125
vt 0.1875 0.75
vt 0.5625 0.75
vt 0.5625 0.8125
vt 0.1875 0.8125
vt 0 0.75
vt 0.1875 0.75
vt 0.1875 0.8125
vt 0 0.8125
vt 0.75 0.75
vt 1.125 0.75
vt 1.125 0.8125
vt 0.75 0.8125
vt 0.5625 0.75
vt 0.75 0.75
vt 0.75 0.8125
vt 0.5625 0.8125
vt 0.5625 1
vt 0.1875 1
vt 0.1875 0.8125
vt 0.5625 0.8125
vt 0.9375 0.8125
vt 0.5625 0.8125
vt 0.5625 1
vt 0.9375 1
vn 0 0 -1
vn 1 0 0
vn 0 0 1
vn -1 0 0
vn 0 1 0
vn 0 -1 0
usemtl none
f 41/181/61 42/182/61 43/183/61 44/184/61
f 45/185/62 41/186/62 44/187/62 46/188/62
f 47/189/63 45/190/63 46/191/63 48/192/63
f 42/193/64 47/194/64 48/195/64 43/196/64
f 48/197/65 46/198/65 44/199/65 43/200/65
f 42/201/66 41/202/66 45/203/66 47/204/66
o cube
v -0.125 0.0625 0.0625
v -0.125 -0.5 0.0625
v -0.125 0.0625 -0.0625
v -0.125 -0.5 -0.0625
v -0.25 0.0625 -0.0625
v -0.25 -0.5 -0.0625
v -0.25 0.0625 0.0625
v -0.25 -0.5 0.0625
vt 0 1
vt 0 0.4375
vt 0.125 1
vt 0 0.4375
vt 0.125 0.4375
vt 0.125 1
vt 0 1
vt 0 0.4375
vt 0.125 1
vt 0 0.4375
vt 0.125 0.4375
vt 0.125 1
vt 0 1
vt 0 0.875
vt 0.125 1
vt 0 0.875
vt 0.125 0.875
vt 0.125 1
vt 0 1
vt 0 0.875
vt 0.125 1
vt 0 0.875
vt 0.125 0.875
vt 0.125 1
vt 0 1
vt 0 0.4375
vt 0.125 1
vt 0 0.4375
vt 0.125 0.4375
vt 0.125 1
vt 0 1
vt 0 0.4375
vt 0.125 1
vt 0 0.4375
vt 0.125 0.4375
vt 0.125 1
vn 1 0 0
vn 1 0 0
vn -1 0 0
vn -1 0 0
vn 0 1 0
vn 0 1 0
vn 0 -1 0
vn 0 -1 0
vn 0 0 1
vn 0 0 1
vn 0 0 -1
vn 0 0 -1
usemtl none
f 49/205/67 50/206/67 51/207/67
f 50/208/68 52/209/68 51/210/68
f 53/211/69 54/212/69 55/213/69
f 54/214/70 56/215/70 55/216/70
f 53/217/71 55/218/71 51/219/71
f 55/220/72 49/221/72 51/222/72
f 56/223/73 54/224/73 50/225/73
f 54/226/74 52/227/74 50/228/74
f 55/229/75 56/230/75 49/231/75
f 56/232/76 50/233/76 49/234/76
f 51/235/77 52/236/77 53/237/77
f 52/238/78 54/239/78 53/240/78
o cube
v 0.25 0.0625 0.0625
v 0.25 -0.5 0.0625
v 0.25 0.0625 -0.0625
v 0.25 -0.5 -0.0625
v 0.125 0.0625 -0.0625
v 0.125 -0.5 -0.0625
v 0.125 0.0625 0.0625
v 0.125 -0.5 0.0625
vt 0 1
vt 0 0.4375
vt 0.125 1
vt 0 0.4375
vt 0.125 0.4375
vt 0.125 1
vt 0 1
vt 0 0.4375
vt 0.125 1
vt 0 0.4375
vt 0.125 0.4375
vt 0.125 1
vt 0 1
vt 0 0.875
vt 0.125 1
vt 0 0.875
vt 0.125 0.875
vt 0.125 1
vt 0 1
vt 0 0.875
vt 0.125 1
vt 0 0.875
vt 0.125 0.875
vt 0.125 1
vt 0 1
vt 0 0.4375
vt 0.125 1
vt 0 0.4375
vt 0.125 0.4375
vt 0.125 1
vt 0 1
vt 0 0.4375
vt 0.125 1
vt 0 0.4375
vt 0.125 0.4375
vt 0.125 1
vn 1 0 0
vn 1 0 0
vn -1 0 0
vn -1 0 0
vn 0 1 0
vn 0 1 0
vn 0 -1 0
vn 0 -1 0
vn 0 0 1
vn 0 0 1
vn 0 0 -1
vn 0 0 -1
usemtl none
f 57/241/79 58/242/79 59/243/79
f 58/244/80 60/245/80 59/246/80
f 61/247/81 62/248/81 63/249/81
f 62/250/82 64/251/82 63/252/82
f 61/253/83 63/254/83 59/255/83
f 63/256/84 57/257/84 59/258/84
f 64/259/85 62/260/85 58/261/85
f 62/262/86 60/263/86 58/264/86
f 63/265/87 64/266/87 57/267/87
f 64/268/88 58/269/88 57/270/88
f 59/271/89 60/272/89 61/273/89
f 60/274/90 62/275/90 61/276/90
o spine
v 0.0625 -0.0625 -0.0625
v -0.0625 -0.0625 -0.0625
v -0.0625 0.125 -0.0625
v 0.0625 0.125 -0.0625
v 0.0625 -0.0625 0.0625
v 0.0625 0.125 0.0625
v -0.0625 -0.0625 0.0625
v -0.0625 0.125 0.0625
vt 0.125 0.6875
vt 0.25 0.6875
vt 0.25 0.875
vt 0.125 0.875
vt 0 0.6875
vt 0.125 0.6875
vt 0.125 0.875
vt 0 0.875
vt 0.375 0.6875
vt 0.5 0.6875
vt 0.5 0.875
vt 0.375 0.875
vt 0.25 0.6875
vt 0.375 0.6875
vt 0.375 0.875
vt 0.25 0.875
vt 0.25 1
vt 0.125 1
vt 0.125 0.875
vt 0.25 0.875
vt 0.375 0.875
vt 0.25 0.875
vt 0.25 1
vt 0.375 1
vn 0 0 -1
vn 1 0 0
vn 0 0 1
vn -1 0 0
vn 0 1 0
vn 0 -1 0
usemtl none
f 65/277/91 66/278/91 67/279/91 68/280/91
f 69/281/92 65/282/92 68/283/92 70/284/92
f 71/285/93 69/286/93 70/287/93 72/288/93
f 66/289/94 71/290/94 72/291/94 67/292/94
f 72/293/95 70/294/95 68/295/95 67/296/95
f 66/297/96 65/298/96 69/299/96 71/300/96
o spine
v 0.0625 0.5625 0.0625
v 0.0625 0.5625 -0.0625
v 0.0625 0.0625 0.0625
v 0.0625 0.0625 -0.0625
v -0.0625 0.5625 -0.0625
v -0.0625 0.5625 0.0625
v -0.0625 0.0625 -0.0625
v -0.0625 0.0625 0.0625
vt 0.125 0.875
vt 0.25 0.875
vt 0.25 0.375
vt 0.125 0.375
vt 0 0.875
vt 0.125 0.875
vt 0.125 0.375
vt 0 0.375
vt 0.375 0.875
vt 0.5 0.875
vt 0.5 0.375
vt 0.375 0.375
vt 0.25 0.875
vt 0.375 0.875
vt 0.375 0.375
vt 0.25 0.375
vt 0.25 0.875
vt 0.125 0.875
vt 0.125 1
vt 0.25 1
vt 0.375 1
vt 0.25 1
vt 0.25 0.875
vt 0.375 0.875
vn 0 0 -1
vn 1 0 0
vn 0 0 1
vn -1 0 0
vn 0 1 0
vn 0 -1 0
usemtl m_0
f 76/304/97 79/303/97 77/302/97 74/301/97
f 75/308/98 76/307/98 74/306/98 73/305/98
f 80/312/99 75/311/99 73/310/99 78/309/99
f 79/316/100 80/315/100 78/314/100 77/313/100
f 78/320/101 73/319/101 74/318/101 77/317/101
f 79/324/102 76/323/102 75/322/102 80/321/102
o rib base 1
v 0.25 0.5625 0
v 0.25 0.5625 -0.0625
v 0.25 0.5 0
v 0.25 0.5 -0.0625
v -0.25 0.5625 -0.0625
v -0.25 0.5625 0
v -0.25 0.5 -0.0625
v -0.25 0.5 0
vt 0.0625 0.9375
vt 0.5625 0.9375
vt 0.5625 0.875
vt 0.0625 0.875
vt 0 0.9375
vt 0.0625 0.9375
vt 0.0625 0.875
vt 0 0.875
vt 0.625 0.9375
vt 1.125 0.9375
vt 1.125 0.875
vt 0.625 0.875
vt 0.5625 0.9375
vt 0.625 0.9375
vt 0.625 0.875
vt 0.5625 0.875
vt 0.5625 0.9375
vt 0.0625 0.9375
vt 0.0625 1
vt 0.5625 1
vt 1.0625 1
vt 0.5625 1
vt 0.5625 0.9375
vt 1.0625 0.9375
vn 0 0 -1
vn 1 0 0
vn 0 0 1
vn -1 0 0
vn 0 1 0
vn 0 -1 0
usemtl m_0
f 84/328/103 87/327/103 85/326/103 82/325/103
f 83/332/104 84/331/104 82/330/104 81/329/104
f 88/336/105 83/335/105 81/334/105 86/333/105
f 87/340/106 88/339/106 86/338/106 85/337/106
f 86/344/107 81/343/107 82/342/107 85/341/107
f 87/348/108 84/347/108 83/346/108 88/345/108
o rib base 2
v 0.25 0.4375 0
v 0.25 0.4375 -0.0625
v 0.25 0.375 0
v 0.25 0.375 -0.0625
v -0.25 0.4375 -0.0625
v -0.25 0.4375 0
v -0.25 0.375 -0.0625
v -0.25 0.375 0
vt 0.0625 0.9375
vt 0.5625 0.9375
vt 0.5625 0.875
vt 0.0625 0.875
vt 0 0.9375
vt 0.0625 0.9375
vt 0.0625 0.875
vt 0 0.875
vt 0.625 0.9375
vt 1.125 0.9375
vt 1.125 0.875
vt 0.625 0.875
vt 0.5625 0.9375
vt 0.625 0.9375
vt 0.625 0.875
vt 0.5625 0.875
vt 0.5625 0.9375
vt 0.0625 0.9375
vt 0.0625 1
vt 0.5625 1
vt 1.0625 1
vt 0.5625 1
vt 0.5625 0.9375
vt 1.0625 0.9375
vn 0 0 -1
vn 1 0 0
vn 0 0 1
vn -1 0 0
vn 0 1 0
vn 0 -1 0
usemtl m_0
f 92/352/109 95/351/109 93/350/109 90/349/109
f 91/356/110 92/355/110 90/354/110 89/353/110
f 96/360/111 91/359/111 89/358/111 94/357/111
f 95/364/112 96/363/112 94/362/112 93/361/112
f 94/368/113 89/367/113 90/366/113 93/365/113
f 95/372/114 92/371/114 91/370/114 96/369/114
o rib base 3
v 0.25 0.3125 0
v 0.25 0.3125 -0.0625
v 0.25 0.25 0
v 0.25 0.25 -0.0625
v -0.25 0.3125 -0.0625
v -0.25 0.3125 0
v -0.25 0.25 -0.0625
v -0.25 0.25 0
vt 0.0625 0.9375
vt 0.5625 0.9375
vt 0.5625 0.875
vt 0.0625 0.875
vt 0 0.9375
vt 0.0625 0.9375
vt 0.0625 0.875
vt 0 0.875
vt 0.625 0.9375
vt 1.125 0.9375
vt 1.125 0.875
vt 0.625 0.875
vt 0.5625 0.9375
vt 0.625 0.9375
vt 0.625 0.875
vt 0.5625 0.875
vt 0.5625 0.9375
vt 0.0625 0.9375
vt 0.0625 1
vt 0.5625 1
vt 1.0625 1
vt 0.5625 1
vt 0.5625 0.9375
vt 1.0625 0.9375
vn 0 0 -1
vn 1 0 0
vn 0 0 1
vn -1 0 0
vn 0 1 0
vn 0 -1 0
usemtl m_0
f 100/376/115 103/375/115 101/374/115 98/373/115
f 99/380/116 100/379/116 98/378/116 97/377/116
f 104/384/117 99/383/117 97/382/117 102/381/117
f 103/388/118 104/387/118 102/386/118 101/385/118
f 102/392/119 97/391/119 98/390/119 101/389/119
f 103/396/120 100/395/120 99/394/120 104/393/120
o rib curve 1b
v -0.1875 0.5625 0.125
v -0.1875 0.5625 0
v -0.1875 0.5 0.125
v -0.1875 0.5 0
v -0.25 0.5625 0
v -0.25 0.5625 0.125
v -0.25 0.5 0
v -0.25 0.5 0.125
vt 0.125 0.875
vt 0.1875 0.875
vt 0.1875 0.8125
vt 0.125 0.8125
vt 0 0.875
vt 0.125 0.875
vt 0.125 0.8125
vt 0 0.8125
vt 0.3125 0.875
vt 0.375 0.875
vt 0.375 0.8125
vt 0.3125 0.8125
vt 0.1875 0.875
vt 0.3125 0.875
vt 0.3125 0.8125
vt 0.1875 0.8125
vt 0.1875 0.875
vt 0.125 0.875
vt 0.125 1
vt 0.1875 1
vt 0.25 1
vt 0.1875 1
vt 0.1875 0.875
vt 0.25 0.875
vn 0 0 -1
vn 1 0 0
vn 0 0 1
vn -1 0 0
vn 0 1 0
vn 0 -1 0
usemtl m_0
f 108/400/121 111/399/121 109/398/121 106/397/121
f 107/404/122 108/403/122 106/402/122 105/401/122
f 112/408/123 107/407/123 105/406/123 110/405/123
f 111/412/124 112/411/124 110/410/124 109/409/124
f 110/416/125 105/415/125 106/414/125 109/413/125
f 111/420/126 108/419/126 107/418/126 112/417/126
o rib curve 1a
v 0.25 0.5625 0.125
v 0.25 0.5625 0
v 0.25 0.5 0.125
v 0.25 0.5 0
v 0.1875 0.5625 0
v 0.1875 0.5625 0.125
v 0.1875 0.5 0
v 0.1875 0.5 0.125
vt 0.125 0.875
vt 0.1875 0.875
vt 0.1875 0.8125
vt 0.125 0.8125
vt 0 0.875
vt 0.125 0.875
vt 0.125 0.8125
vt 0 0.8125
vt 0.3125 0.875
vt 0.375 0.875
vt 0.375 0.8125
vt 0.3125 0.8125
vt 0.1875 0.875
vt 0.3125 0.875
vt 0.3125 0.8125
vt 0.1875 0.8125
vt 0.1875 0.875
vt 0.125 0.875
vt 0.125 1
vt 0.1875 1
vt 0.25 1
vt 0.1875 1
vt 0.1875 0.875
vt 0.25 0.875
vn 0 0 -1
vn 1 0 0
vn 0 0 1
vn -1 0 0
vn 0 1 0
vn 0 -1 0
usemtl m_0
f 116/424/127 119/423/127 117/422/127 114/421/127
f 115/428/128 116/427/128 114/426/128 113/425/128
f 120/432/129 115/431/129 113/430/129 118/429/129
f 119/436/130 120/435/130 118/434/130 117/433/130
f 118/440/131 113/439/131 114/438/131 117/437/131
f 119/444/132 116/443/132 115/442/132 120/441/132
o rib curve 2b
v -0.1875 0.4375 0.125
v -0.1875 0.4375 0
v -0.1875 0.375 0.125
v -0.1875 0.375 0
v -0.25 0.4375 0
v -0.25 0.4375 0.125
v -0.25 0.375 0
v -0.25 0.375 0.125
vt 0.125 0.875
vt 0.1875 0.875
vt 0.1875 0.8125
vt 0.125 0.8125
vt 0 0.875
vt 0.125 0.875
vt 0.125 0.8125
vt 0 0.8125
vt 0.3125 0.875
vt 0.375 0.875
vt 0.375 0.8125
vt 0.3125 0.8125
vt 0.1875 0.875
vt 0.3125 0.875
vt 0.3125 0.8125
vt 0.1875 0.8125
vt 0.1875 0.875
vt 0.125 0.875
vt 0.125 1
vt 0.1875 1
vt 0.25 1
vt 0.1875 1
vt 0.1875 0.875
vt 0.25 0.875
vn 0 0 -1
vn 1 0 0
vn 0 0 1
vn -1 0 0
vn 0 1 0
vn 0 -1 0
usemtl m_0
f 124/448/133 127/447/133 125/446/133 122/445/133
f 123/452/134 124/451/134 122/450/134 121/449/134
f 128/456/135 123/455/135 121/454/135 126/453/135
f 127/460/136 128/459/136 126/458/136 125/457/136
f 126/464/137 121/463/137 122/462/137 125/461/137
f 127/468/138 124/467/138 123/466/138 128/465/138
o rib curve 2a
v 0.25 0.4375 0.125
v 0.25 0.4375 0
v 0.25 0.375 0.125
v 0.25 0.375 0
v 0.1875 0.4375 0
v 0.1875 0.4375 0.125
v 0.1875 0.375 0
v 0.1875 0.375 0.125
vt 0.125 0.875
vt 0.1875 0.875
vt 0.1875 0.8125
vt 0.125 0.8125
vt 0 0.875
vt 0.125 0.875
vt 0.125 0.8125
vt 0 0.8125
vt 0.3125 0.875
vt 0.375 0.875
vt 0.375 0.8125
vt 0.3125 0.8125
vt 0.1875 0.875
vt 0.3125 0.875
vt 0.3125 0.8125
vt 0.1875 0.8125
vt 0.1875 0.875
vt 0.125 0.875
vt 0.125 1
vt 0.1875 1
vt 0.25 1
vt 0.1875 1
vt 0.1875 0.875
vt 0.25 0.875
vn 0 0 -1
vn 1 0 0
vn 0 0 1
vn -1 0 0
vn 0 1 0
vn 0 -1 0
usemtl m_0
f 132/472/139 135/471/139 133/470/139 130/469/139
f 131/476/140 132/475/140 130/474/140 129/473/140
f 136/480/141 131/479/141 129/478/141 134/477/141
f 135/484/142 136/483/142 134/482/142 133/481/142
f 134/488/143 129/487/143 130/486/143 133/485/143
f 135/492/144 132/491/144 131/490/144 136/489/144
o rib curve 3a
v 0.25 0.3125 0.125
v 0.25 0.3125 0
v 0.25 0.25 0.125
v 0.25 0.25 0
v 0.1875 0.3125 0
v 0.1875 0.3125 0.125
v 0.1875 0.25 0
v 0.1875 0.25 0.125
vt 0.125 0.875
vt 0.1875 0.875
vt 0.1875 0.8125
vt 0.125 0.8125
vt 0 0.875
vt 0.125 0.875
vt 0.125 0.8125
vt 0 0.8125
vt 0.3125 0.875
vt 0.375 0.875
vt 0.375 0.8125
vt 0.3125 0.8125
vt 0.1875 0.875
vt 0.3125 0.875
vt 0.3125 0.8125
vt 0.1875 0.8125
vt 0.1875 0.875
vt 0.125 0.875
vt 0.125 1
vt 0.1875 1
vt 0.25 1
vt 0.1875 1
vt 0.1875 0.875
vt 0.25 0.875
vn 0 0 -1
vn 1 0 0
vn 0 0 1
vn -1 0 0
vn 0 1 0
vn 0 -1 0
usemtl m_0
f 140/496/145 143/495/145 141/494/145 138/493/145
f 139/500/146 140/499/146 138/498/146 137/497/146
f 144/504/147 139/503/147 137/502/147 142/501/147
f 143/508/148 144/507/148 142/506/148 141/505/148
f 142/512/149 137/511/149 138/510/149 141/509/149
f 143/516/150 140/515/150 139/514/150 144/513/150
o rib curve 3b
v -0.1875 0.3125 0.125
v -0.1875 0.3125 0
v -0.1875 0.25 0.125
v -0.1875 0.25 0
v -0.25 0.3125 0
v -0.25 0.3125 0.125
v -0.25 0.25 0
v -0.25 0.25 0.125
vt 0.125 0.875
vt 0.1875 0.875
vt 0.1875 0.8125
vt 0.125 0.8125
vt 0 0.875
vt 0.125 0.875
vt 0.125 0.8125
vt 0 0.8125
vt 0.3125 0.875
vt 0.375 0.875
vt 0.375 0.8125
vt 0.3125 0.8125
vt 0.1875 0.875
vt 0.3125 0.875
vt 0.3125 0.8125
vt 0.1875 0.8125
vt 0.1875 0.875
vt 0.125 0.875
vt 0.125 1
vt 0.1875 1
vt 0.25 1
vt 0.1875 1
vt 0.1875 0.875
vt 0.25 0.875
vn 0 0 -1
vn 1 0 0
vn 0 0 1
vn -1 0 0
vn 0 1 0
vn 0 -1 0
usemtl m_0
f 148/520/151 151/519/151 149/518/151 146/517/151
f 147/524/152 148/523/152 146/522/152 145/521/152
f 152/528/153 147/527/153 145/526/153 150/525/153
f 151/532/154 152/531/154 150/530/154 149/529/154
f 150/536/155 145/535/155 146/534/155 149/533/155
f 151/540/156 148/539/156 147/538/156 152/537/156